<svg xmlns="http://www.w3.org/2000/svg" viewBox="0 0 144 144"><defs><style>.a{fill:none;stroke:#6abd45;stroke-miterlimit:10;stroke-width:0.25px;}</style></defs><path class="a" d="M42.33,35.39c8.76-8.66,20.27-9,24.06-9.08a41.41,41.41,0,0,1,25.11,8c13.39,9.42,17.16,23.3,18.18,27.26s6.28,24.61-7.49,41.15c-1.26,1.52-12.48,14.56-31,15-3.27.07-21.18.07-31-13.36a30.48,30.48,0,0,1-5-11.18v-5c6.83,1.49,11,1.2,13.69.56.73-.17,2.56-.67,3.91.28s1.3,2.86,1.68,4.47c1.36,5.78,9.13,8.54,9.49,8.66,7.47,2.55,14-1.86,14.53-2.23,8-5.62,9.08-17.56,7-18.72-.74-.41-1.69.6-3.92,1.95,0,0-5.06,3.09-14.24,4.47-7,1.07-22.88-1-30.74-13.69S33.15,44.48,42.33,35.39Z"/></svg>