<svg xmlns="http://www.w3.org/2000/svg" viewBox="0 0 144 144"><defs><style>.a{fill:none;stroke:#b9529f;stroke-miterlimit:10;}</style></defs><polygon class="a" points="86.61 25.26 86.91 39.14 86.91 44.1 86.61 49.57 86.61 55.44 86.05 66.03 85.8 76.2 85.8 79.24 85.49 88.05 85.49 102.38 84.94 115.34 84.73 120.91 78.56 120.91 71.37 120.46 62.05 119.8 57.54 119.65 58.45 105.77 58.3 101.01 58.51 94.73 57.54 82.58 57.09 76.81 57.09 75.04 57.09 73.42 57.95 70.68 58.86 64.91 60.18 49.87 60.38 37.87 59.92 29.57 60.28 23.09 62.91 23.8 69.8 24.91 71.77 25.26 79.37 25.16 84.89 24.96 86.61 25.26"/></svg>