<svg xmlns="http://www.w3.org/2000/svg" viewBox="0 0 144 144"><defs><style>.a{fill:none;stroke:#f7ec13;stroke-miterlimit:10;}</style></defs><path class="a" d="M51.21,104.83c-1.6-3.17-8.69-4-17.05-1.47V50.16H45.62V96c.7.09,1.72.21,2.94.3,1.59.11,1.77.06,1.89,0,1.35-.66.58-4.37.32-7.26-.29-3.21-.9-9.94,2.68-14.35,2.91-3.58,7.66-4.47,8.2-4.57A14.51,14.51,0,0,1,65.12,70l3-19.81H83.88L90,100.88l4.26-29.17a19.59,19.59,0,0,1,3.94,0c.63.06,1.06.14,1.15,0,.24-.46-2.32-1.48-3.57-3.65-1-1.71-.74-3.5-.24-7.06.54-3.78.81-5.67,2.26-7.53a11.7,11.7,0,0,1,5.9-3.73,15.9,15.9,0,0,1,9.64-.58c.87.23,7.69,2.15,9.5,7.57,1.62,4.83-2.14,8.32-.17,10.73,1.75,2.15,6.86,2,9.85-.17,5.55-4,5.22-16,2.12-22.89C124.6,22.11,68.46,15.87,33.46,38.2,21.27,46,16,54.42,14.09,57.92c-8.31,15-10.76,38,1.41,51.57C20.8,115.42,31.05,122,40.14,119,47.15,116.66,53.17,108.72,51.21,104.83Z"/></svg>