<svg xmlns="http://www.w3.org/2000/svg" viewBox="0 0 144 144"><defs><style>.a{fill:none;stroke:#6abd45;stroke-miterlimit:10;}</style></defs><path class="a" d="M56.39,44.21A17.2,17.2,0,0,1,75.78,32.64c1.27.23,8.67,1.52,11.9,8.17,2.66,5.47.7,10.9.34,11.9a16.14,16.14,0,0,1-2.72,4.76,9,9,0,0,1,1.35,1.8c.27.48.32.66.52.75.73.29,1.71-1.4,3.07-2.33s3.07-.88,5.55-.67c2.72.23,6.58.55,10.34,3.45a15.6,15.6,0,0,1,5.39,7.41c.25.75,2.32,7.27-1.65,13.27A16.06,16.06,0,0,1,100,87.66c-4.25,1.1-8.44.49-10.48-.6a20,20,0,0,1-3.15-2.17,16.63,16.63,0,0,1-1.28-1.2,11.37,11.37,0,0,1-1.12,1c-.55.45-.75.53-.82.75-.23.72,1.37,1.78,1.87,2.17,2.91,2.29,2.25,8.7,1.5,11.77a16,16,0,0,1-6.74,9.81,15.75,15.75,0,0,1-11.24,2.1c-7.57-1.43-11-7.91-11.47-8.84-1.94-3.83-3.33-10.3-.07-14.61a9.14,9.14,0,0,1,2-2l1-1a6.21,6.21,0,0,1-1.35-1.42c-.36-.52-.47-.85-.75-.9-.6-.12-1.31,1.12-1.5,1.42-1.51,2.4-6.12,2.73-7.79,2.85A16.25,16.25,0,0,1,34.2,79.27a16,16,0,0,1-.07-17,15.31,15.31,0,0,1,8.31-6.06,16.87,16.87,0,0,1,11.77,1A18.55,18.55,0,0,1,58.72,60c.41-.35,1-.89,1.66-1.58s.6-.69.62-.76c.29-1-1.69-1.78-3-3.73-.83-1.26-1-2.71-1.38-5.6A31.07,31.07,0,0,1,56.39,44.21Z"/></svg>