<svg xmlns="http://www.w3.org/2000/svg" viewBox="0 0 144 144"><defs><style>.a{fill:none;stroke:#6fccdd;stroke-miterlimit:10;}</style></defs><path class="a" d="M43.16,64.15c19.28-8.88,27-14,30.15-17a15.47,15.47,0,0,1,8-4.37,10.9,10.9,0,0,1,5.75.46,13.12,13.12,0,0,1,5.3,4.14c2.49,2.81,2.09,3.74,3.68,5.06,2.46,2.05,5,1.14,9,1.61a24.39,24.39,0,0,1,13.11,6.22,23.14,23.14,0,0,1,6.91,12.89c.37,2.29,1,6.47-.92,10.58-2.45,5.12-7.5,7-15.88,10.13C103,95.8,97,98.07,88.73,98.21c-6.09.11-8.4-1-16.34-.46-3,.22-3.35.42-9.9,1.38-10.89,1.6-16.45,2.39-22.1,2.3-7-.11-11.59-.24-15.88-3.45-1-.78-5.51-4.13-6-9.43-.41-4.73,2.58-8.32,5.52-11.74A43.69,43.69,0,0,1,43.16,64.15Z"/></svg>