<svg xmlns="http://www.w3.org/2000/svg" viewBox="0 0 144 144"><defs><style>.a{fill:none;stroke:#f7ec13;stroke-miterlimit:10;}</style></defs><path class="a" d="M33.23,35C38,40.5,45.1,37.18,53.5,40.27,63.84,44.07,68.52,54.78,73,65c1.28,2.92,15,35.08,1.88,49.15-3.19,3.43-8.06,5.88-8.26,10.88a10.25,10.25,0,0,0,5.25,9c7.39,3.8,18.47-5.45,21.39-7.88,15.3-12.76,18.75-31.81,19.89-38.65,2.84-17-1-29.42-6.75-48.41C101.22,22.2,96.46,16.51,91,13.25,89.8,12.52,79.82,6.7,73.76,11c-2.82,2-4.3,5.87-4.5,9-.33,5.09,2.8,6.78,1.65,9.43-1.67,3.81-10.31,5.19-16.27,1.88-1.78-1-4-2.23-4.48-4.48-1.24-6.2,12.93-12,11.55-15.79-.59-1.63-4-2.62-6.6-1.65-6.3,2.38-3.77,15.24-9.66,17.21-3.41,1.14-8.52-1.72-9.67-2.36C32.84,22.61,32,21,31.07,21.42,29.28,22.21,29.13,30.33,33.23,35Z"/></svg>