<svg xmlns="http://www.w3.org/2000/svg" viewBox="0 0 144 144"><defs><style>.a{fill:none;stroke:#6abd45;stroke-miterlimit:10;}</style></defs><path class="a" d="M16.24,127c-1.63-3.08-2-3.46-2.29-4.84a20.91,20.91,0,0,1,.25-8.79c.42-1.56.9-2.51.38-3.43-.62-1.11-2-1-3.44-1.53-4-1.58-6.56-7.86-4.83-10.19A3.54,3.54,0,0,1,9,97.05c2.1,0,2.85,1.65,5.48,3.06.45.25,4.68,2.47,7.13,1,1.64-1,1.77-3.18,2.16-5.86,1.06-7.15,2.07-4.62,5-17.7,1.39-6.26,2.08-9.39,2-10.83-.28-8.92-5.64-16.84-7.52-19.61-2.47-3.65-3.54-4.16-4.33-6.87a24,24,0,0,1,0-12.1c.6-2,1.39-3.5.64-4.46s-2.6-.08-5-.89c-1.84-.63-2.95-2.17-5.09-5.22C6.86,13.84,5.22,11.5,6.05,10,6.51,9.1,7.26,9.29,11.14,8c4.18-1.36,4.3-1.91,6-1.91,2.13,0,3.77.86,6,2C26.39,9.9,26.6,11,28.59,11.22c2.37.25,3.61-1.15,4.59-.38,1.29,1-.21,4,.89,4.71s3.44-2.31,5.47-1.53a2.9,2.9,0,0,1,1.66,2.29c.29,2.83-4.64,5.38-7.77,7S28.35,26,25.92,25.61c-1.73-.24-2.86-1-3.7-.38s-.45,1.77-.51,4.46c-.07,3.65-.72,3.72-.63,6.36a15.71,15.71,0,0,0,1.4,6.12c1.42,3,2.89,3.18,5.22,6.36a26,26,0,0,1,3.57,7.39,36.8,36.8,0,0,1,2,10.7c.14,3.83-.88,8.07-2.93,16.55-1.47,6.12-2.21,9.17-2.8,10.45-1.62,3.49-4.09,7.07-2.8,8.78.36.48.66.34,1.53,1.15.67.63,2.11,2,2,3.82a4.4,4.4,0,0,1-2.68,3.69c-1.39.57-2-.16-2.93.38-1.31.81-.65,2.84-1.14,6.63-.62,4.75-2.15,5.29-1.4,7.64.53,1.68,1.47,1.85,2.42,4.58.62,1.79.63,2.89,1,2.93.77.09,1.83-4.08,2.16-5.35,1.59-6.1,4.08-11.94,6-18,3.78-12,4-12.13,5-16,.66-2.73,1.54-6.37,2.29-11.33s2-10,2.93-15c.37-1.9.83-4.33,2.81-5.6a5.92,5.92,0,0,1,4.58-.77c1.48.41,1.68,1.25,3.31,1.53a4.34,4.34,0,0,0,3.18-.51c.48-.34,1-1,1.53-4.07s.89-5.41,0-5.86c-.63-.33-1.25.62-3.56,1.65A8.86,8.86,0,0,1,49.09,55a6.28,6.28,0,0,1-4.83-4c-.76-2.13.73-2.52,1.4-7.89.3-2.44.17-3.78,1.27-4.72.59-.5.85-.31,3.06-1,2.7-.86,3.15-1.42,4.07-1.14,1.15.34,1.12,1.41,2.17,2.29,1.7,1.42,3.78.29,7.51.13A18.24,18.24,0,0,1,74.18,41.4c.78.52,3.48,2.32,3.19,4.08-.23,1.39-2.15,1.56-2.3,2.93-.17,1.61,2.42,2.16,2.81,4.45a4.12,4.12,0,0,1-1.66,4c-.63.39-1.53.58-6.75-.89-3.33-.94-4.68-1.51-5.22-.89s.21,1.27.25,3.31c0,.45.08,3.58-1.14,4.07s-2.53-2-4-1.52c-1.08.35-.72,1.91-2.16,3.18a5.87,5.87,0,0,1-4.08,1.15c-3-.1-3.81-1.95-5.6-1.53-.49.11-1.66.54-3.06,3.56a21.9,21.9,0,0,0-1.91,9.3c0,3.87-1,8.1-3.06,16.56a144.7,144.7,0,0,1-4.84,15.66c-1.23,3.26-2,5.74-3.43,10.7-.82,2.76-1.09,3.86-.9,4,.37.15,2.19-3.34,5.1-9C40.74,104,42.68,100,45.78,94.51c4.69-8.27,6.62-10.29,9-11.85,1.45-.93,5.63-3.61,10.31-2.54a10,10,0,0,1,4.59,2.16c2.13,1.87,2.09,3.72,4.07,4.46a4.93,4.93,0,0,0,3.82-.38c1.85-1,3.28-3.26,2.68-4.46s-2.39-.26-5.1-1.66a7.92,7.92,0,0,1-3.69-3.69,7.6,7.6,0,0,1-.38-4.84c.5-2.33,2.23-5.55,5-6.11,1-.21,2.61.49,5.73,1.91,5.07,2.29,5.47,3.13,7.77,3.31,1.75.14,3-.22,3.44.51s-.69,1.66-.89,3.57c-.15,1.43.37,2.53,1.4,4.71C95.14,83,96,83,96.21,84.7c.15,1.43-.41,2.57-1.52,4.84-1.29,2.62-1.93,3.92-3.44,4.58a5,5,0,0,1-5.1-.63c-.92-.86-.64-1.61-1.65-4.59-.65-1.9-1.48-4.35-2.42-4.33-.73,0-.78,1.53-2.17,2.93a6.66,6.66,0,0,1-4.07,1.91c-3.79.23-4.58-5-9.81-6.62a11.24,11.24,0,0,0-7.38.51c-2.43,1-4,2.66-5.61,4.84-3.42,4.53-4.51,7.6-7.38,13.37-2.52,5-5.46,10.26-7.14,13.25-3.08,5.48-5.34,9.15-4.58,9.8s3.46-3.32,8.15-3.31c1.86,0,2.54.64,6.37.89a16.5,16.5,0,0,0,3.95,0c3.52-.6,5.76-3.44,6.75-4.58,2.83-3.3,6.6-5.34,14.13-9.43,10.6-5.74,13.56-2.59,20.76-8.4,2.58-2.08,2.85-3,7.77-7.13,5.26-4.41,7.89-6.62,8.53-7,2.11-1.28,3.94-2.09,4-3.44s-1.53-1.69-3.06-3.69A12.46,12.46,0,0,1,109.08,73c-1.17-5.39-.13-12.3,2-12.73,1.07-.21,2.65,1.11,3.31,2.42.59,1.16.37,2.1.9,2.29.81.3,1.61-1.85,3.31-1.91a2.48,2.48,0,0,1,2.29,1.4c.41,1.09-.75,1.92-.38,2.55.65,1.12,4.59-1,6.24.51,1,1,.16,2.51,1.4,3.56,1,.85,1.79.07,3.18.9,1.06.62,1.55,1.64,2.55,3.69.75,1.54.5,1.48,1,2.42,1.43,2.62,3.23,2.93,3.31,4.33.07,1.22-1.23,2.22-2.17,2.93a11.58,11.58,0,0,1-8.91,2.29,29.2,29.2,0,0,1-8.41-3.44,2.49,2.49,0,0,0-1.78-.51c-1.26.24-1.92,1.87-2.16,2.42-1.6,3.55-5.12,3.5-11.08,8.79-3.65,3.23-2.73,3.6-5.73,5.86-2,1.52-3.38,2-8.92,4.45-5.93,2.58-8.9,3.86-11.46,5.1a103.17,103.17,0,0,0-9.8,5.22c-7.16,4.37-6.61,5.44-10.83,7.26-4.51,1.94-9,2.38-13,2.77-5.64.55-6.89-.12-9.28,1.32s-2.36,2.77-6.44,6.82c-2.92,2.91-4.38,4.36-5.68,4.17C20.77,137.59,20.59,135.2,16.24,127Z"/></svg>