<svg xmlns="http://www.w3.org/2000/svg" viewBox="0 0 144 144"><defs><style>.a{fill:none;stroke:#6fccdd;stroke-miterlimit:10;}</style></defs><polygon class="a" points="68.23 37.84 66.62 32.6 64.44 21.84 83.3 22.92 83.3 26.64 86.25 26.64 86.25 23.32 92.98 26.64 88.81 36.23 81.95 42.15 87.6 51.56 87.33 71.73 87.19 81.82 88.14 86.71 87.87 92.31 88.41 116.91 85.04 115.57 82.89 119.47 80.74 116.24 78.71 120.41 76.84 116.51 75.36 120.41 70.79 116.24 70.92 122.16 68.1 117.72 64.44 121.35 63.39 115.97 58.15 122.16 58.15 115.57 54.12 119.87 54.12 111.27 51.02 118.39 53.85 100.1 57.48 81.01 60.17 75.86 59.49 72 60.44 56.8 63.66 48.73 67.16 42.15 68.23 37.84"/></svg>