<svg xmlns="http://www.w3.org/2000/svg" viewBox="0 0 144 144"><defs><style>.a{fill:none;stroke:#3953a4;stroke-miterlimit:10;}</style></defs><path class="a" d="M62.06,31.52c-4.77,6.49-34.31,46.64-35.34,46-.32-.2,1.81-4.55,2.42-4.35.89.29-2.84,9.62-2.91,22.75,0,6.45-.05,10.17,1.94,14.53C33,121,44.69,124.42,46.57,125c9.92,2.87,18.26-.12,21.79-1.45a41.87,41.87,0,0,0,13.07-8.23c7.49-6.76,10.41-13.65,14-20.82,13.86-27.39,21.71-26.67,22.27-39.7.63-14.48-8.66-24.58-9.68-25.66C99.71,20.29,85.53,15,74.65,19.41,69.33,21.56,66.66,25.27,62.06,31.52Z"/></svg>