<svg xmlns="http://www.w3.org/2000/svg" viewBox="0 0 144 144"><defs><style>.a{fill:none;stroke:#6fccdd;stroke-miterlimit:10;}</style></defs><path class="a" d="M47.42,24.68c-6.44,15.7,2,41.92,5.2,51.65a20,20,0,0,1,1.15,6.09c.07,4.82-2.1,6-2.55,9.73-.64,5.34,3,11,4.46,13.38,4.86,7.66,11.78,10.89,15.44,12.59,11.8,5.5,21.43,3,26.36,1.77,4.58-1.17,10.54-2.8,15.35-8.6,2.17-2.61,6.33-7.63,5.77-16.08-.13-2-.62-9.37-6.09-15.41a20.76,20.76,0,0,0-7.26-5.21L95.91,54.74,84.39,32.88A124.57,124.57,0,0,1,75.52,19.7a14.48,14.48,0,0,0-1.91-2.94c-4.68-5.1-14.1-4.26-19.75-.45A18,18,0,0,0,47.42,24.68Z"/></svg>