<svg xmlns="http://www.w3.org/2000/svg" viewBox="0 0 144 144"><defs><style>.a{fill:none;stroke:#3953a4;stroke-miterlimit:10;}</style></defs><path class="a" d="M62,7.58C48.59,2.47,26.2,20.05,5.8,49.84L60.63,137.3l77.57-53-12.84-11.9a52.2,52.2,0,0,1-12.31,11.9c-5.63,3.88-10.13,7-14.71,5.89-5.74-1.38-9.92-9-10.69-18.46L86.51,68a16.48,16.48,0,0,0-2.4.89,4.87,4.87,0,0,0-1.39.75c-1.15,1.26,1.58,5.53,2.4,6.95C88.93,83.16,87.73,91,87,95.65s-1.6,10.43-6.56,15.15c-.63.6-7.17,6.62-15.92,5.56C52.26,114.87,47,100.84,46.09,98.3c-.2-.52-4.78-13.39,1.13-24.76,2.55-4.9,7.56-10.51,8.34-11.37,4.89-5.43,8.85-8.09,8.21-11.5-.43-2.31-2.72-3.55-3.16-3.78-5.21-2.84-12.07,2.77-13,3.53-1.67,1.37-5.36,4.39-5.43,9a9.47,9.47,0,0,0,1,4.3,69.63,69.63,0,0,0-15.54,8.75c-.68.53-1.82,1.45-2.78,1.1-2.44-.91-1.82-9.46-.75-14.28,2.78-12.55,14.81-27.75,29.18-28.92,9.4-.77,16.64,4.72,21,.44,2.29-2.26,2.23-5.69,2.21-6.63C76.33,15.7,66.22,9.2,62,7.58Z"/></svg>