<svg xmlns="http://www.w3.org/2000/svg" viewBox="0 0 144 144"><defs><style>.a{fill:none;stroke:#3953a4;stroke-miterlimit:10;}</style></defs><polygon class="a" points="41.83 82.7 41.83 62.04 43.6 62.04 43.6 58.35 45.96 58.35 45.96 61.01 51.86 57.32 54.96 67.65 60.12 63.07 63.52 70.01 69.86 65.29 73.4 70.89 79.6 67.94 81.22 73.84 84.91 72.07 85.94 74.73 87.42 73.84 87.42 70.75 89.04 73.99 92.43 73.55 96.42 76.65 100.7 75.61 102.17 77.09 60.86 85.06 58.8 83.73 58.65 85.8 54.22 86.68 49.65 77.24 45.66 82.4 43.89 80.78 41.83 82.7"/></svg>