<svg xmlns="http://www.w3.org/2000/svg" viewBox="0 0 144 144"><defs><style>.a{fill:none;stroke:#b9529f;stroke-miterlimit:10;}</style></defs><path class="a" d="M25,136.52c-4.16-1.1-6.14-7.19-7.16-11.93l41.78-20.3-6-11.94,10.74-6.57L56,67.88H48.85V55.94h5.37l-3-9.55-7.17,2.38L23.18,40.42,17.81,22.51A238,238,0,0,0,41.09,12.36C52,6.9,59.27,2.17,62,4.6c1.59,1.42-.09,3.75.6,8.36.92,6.16,5.71,13.92,13.73,16.12,6.72,1.84,16-.15,19.7-7.17,2.62-5,1.11-10.36.59-11.94l5.88-.59,16.7,45.27-14,5.93a57.84,57.84,0,0,0,4,9.66c1.22,2.28,2.16,3.64,1.62,4.89C110,77,107,76.41,104.09,77.56c-4.88,1.92-8.84,8.34-8.35,14.28.66,8.11,9.44,13.46,16.71,13.75a17.28,17.28,0,0,0,8.35-1.89l5.39,13.47c-34.55,9.17-47.81,15.27-52.82,19.35-1.05.86-5.25,4.49-8.89,3.29-2.54-.84-2.53-3.27-4.85-5.66-5.23-5.37-16.43-4.56-23.72-1.88C29.87,134.49,28.19,137.38,25,136.52Z"/></svg>