<svg xmlns="http://www.w3.org/2000/svg" viewBox="0 0 144 144"><defs><style>.a{fill:none;stroke:#f7ec13;stroke-miterlimit:10;}</style></defs><path class="a" d="M51.43,30.69c1-6.9,6.24-12.49,12.25-14.9a20.92,20.92,0,0,1,14.9,0c5.4,1.95,9.61,5.94,11,9.13a22.41,22.41,0,0,1,1.59,5.53c.06.67.2,1.34.21,2s0,1.2.22,1.38,1-.18,1.27-.32c2-1.09,5.72.08,8,1.91a10,10,0,0,1,2.86,4.25c.78,1.81,2.11,4.9.85,7.85a11.39,11.39,0,0,1-3.5,4.14,10.39,10.39,0,0,1-1.06.75c-.43.22-.64.26-.68.42-.1.41,1.12,1,1.27,1.09,2.15,1.1,6.62,6.44,8.41,12.59a27.28,27.28,0,0,1,.85,8.41c0,3.83,0,7-1.39,10.65-1.62,4.22-4.23,6.78-7,9.51a29,29,0,0,1-8.17,6,21.74,21.74,0,0,1-8.18,2.18H83.25c-.66-.07-.94-.18-1.15,0s0,.84,0,1.87a7.74,7.74,0,0,1-.85,3.45c-.19.43-.47,1-.54,1.09-.67,1.26-1,1.63-.85,1.94s.85.33,1.27.36c1.83.15,3.12,2,4.05,3.27a8.34,8.34,0,0,1-2.84,13c-.63.36-4.28,2.42-8,.79A9.63,9.63,0,0,1,70,124.5a8,8,0,0,1-.66-1.87c-.11-.68,0-1.13-.24-1.21s-.71.54-1.28,1c-.21.18-1,.8-3.26,1-9,.93-13.38-1-13.38-1a21.8,21.8,0,0,1-8.23-6.72c-1.93-2.3-4.89-5.8-5.63-11.08a22,22,0,0,1,.48-7.87,23.77,23.77,0,0,1,2.18-6,11.1,11.1,0,0,1,.61-1c.46-.61.72-.72.72-1,0-.58-1.39-1-1.69-1.15-2.73-1-4-5.34-4.66-7.44a15.88,15.88,0,0,1,.18-10.59A15.35,15.35,0,0,1,40,63.25a16.67,16.67,0,0,1,11.2-3.63,28.05,28.05,0,0,1,3.75.72,8.55,8.55,0,0,1,1.33.43c.44.2.59.35.79.3.43-.1.52-.91.67-1.45.49-1.8,1.85-1.6,3.75-4.24a8.51,8.51,0,0,1,1.45-1.87c.49-.44.88-.64.85-.91,0-.43-1.09-.59-1.64-.73-1.4-.35-2.38-1.4-4.35-3.51a23.72,23.72,0,0,1-3.94-5.45A20.4,20.4,0,0,1,51.43,30.69Z"/></svg>