<svg xmlns="http://www.w3.org/2000/svg" viewBox="0 0 144 144"><defs><style>.a{fill:none;stroke:#6fccdd;stroke-miterlimit:10;}</style></defs><path class="a" d="M46.06,18.79C50.87,11,74,20.9,87.48,17.16a11.28,11.28,0,0,1,7.1,0,11.55,11.55,0,0,1,5.7,5.26c2.53,41.65,4.5,69.31,5.49,73.62a5.92,5.92,0,0,1,0,3.43c-1.21,3.46-5.78,3.49-6.4,6.18-.31,1.29.57,2.1,2,4.57,1.62,2.68,5.68,9.43,3.89,12.57-.8,1.41-2.48,1.62-7.32,2.29-15,2.1-11.44,1.86-14.17,2.06-8.72.63-14.19,1-23.78,1.14-12.8.18-15.94-.32-17.61-2.74-2.11-3.07-1-8-.91-8.23,1.09-4.49,4.43-6.3,3.66-8.69-.47-1.44-2.14-2.25-3.89-2.75.08-21.73-1.13-31.52-2.52-36.12-.39-1.32-1.46-4.41-.22-7.55,1.36-3.46,4.1-3.33,5.26-6.63,1.26-3.6-1.56-5.06-.46-9.37.71-2.8,2-2.45,3.88-6.86,1.26-2.87,2.23-5.09,1.61-7.55-.67-2.63-2.47-2.81-3.43-5.48A9.48,9.48,0,0,1,46.06,18.79Z"/></svg>