<svg xmlns="http://www.w3.org/2000/svg" viewBox="0 0 144 144"><defs><style>.a{fill:none;stroke:#3953a4;stroke-miterlimit:10;}</style></defs><path class="a" d="M98.58,31.6c-7-6.8-26.18,2.91-34.32,7C49.33,46.18,37.83,52,32.83,65.51c-.9,2.44-5.24,15,.83,27.7,8,16.61,27.26,19.74,33.08,20.68,4.72.76,19.93,3.22,33.08-6.21,3.51-2.51,12.91-9.25,13.65-20.67s-7.54-19.25-9.1-20.68c-3.06-2.79-7.83-7.16-13.3-7-.64,0-2.18.13-2.41-.46-.38-1,3.28-2.53,6.62-5.79,1.48-1.44,5.6-5.47,6.2-11.16C101.78,39,101.31,34.25,98.58,31.6Z"/></svg>