<svg xmlns="http://www.w3.org/2000/svg" viewBox="0 0 144 144"><defs><style>.a{fill:none;stroke:#6fccdd;stroke-miterlimit:10;}</style></defs><path class="a" d="M52.34,38.76a9.75,9.75,0,0,1,6.13-6.21A9.91,9.91,0,0,1,67.94,34c3.21,2.7,3.43,7.54,4.22,7.4.35-.06.34-1,.56-2a10.16,10.16,0,0,1,5.88-6.92A9.92,9.92,0,0,1,89.19,35c2.45,2.77,2.38,6.83,2.86,6.77.31,0,0-1.71.56-3.51,1.29-3.89,6-5.42,6.53-5.57,1-.31,5.88-1.63,9.7,1.6a10.21,10.21,0,0,1,3.35,8.11c-.15,3.19-1.8,6.67-4.62,8.2-2.34,1.27-4.81.84-4.85,1.35s3.32.46,5.89,2.63,3.45,5.78,3.1,8.83c-.09.8-.63,4.67-3.66,6.84-2.56,1.84-5.68,1.61-5.65,2s3-.3,5.49,1.2c3.26,2,3.8,6.43,3.9,7.56.08,1,.39,4.72-2,7.4-2.69,3-7.33,3-7.24,3.66,0,.32,1,.28,2.15.56a10.17,10.17,0,0,1,6.84,6.84,10,10,0,0,1-.64,7.24,10.27,10.27,0,0,1-7.16,5.17c-5,.84-9.84-2.49-11.14-6a16.41,16.41,0,0,1-.56-4.3,12.76,12.76,0,0,1-.71,4.54c-1.37,3.12-4.72,4.41-5.65,4.77s-5.32,2-8.76-.08c-4.07-2.52-4.39-9.06-5.09-8.91-.31.07,0,1.34-.43,2.94a9.66,9.66,0,0,1-4,5.38c-3.9,2.64-9.75,2-12.45-.83-2.47-2.61-2.17-7-2.91-6.92-.33,0-.44.89-.8,2a14.88,14.88,0,0,1-2.92,5.25c-2.16,2.38-7,3.33-10.92,1.38a10.12,10.12,0,0,1-5.53-9.76c.52-6.77,8.17-9.77,9.9-9.46.1,0,.76.15.78.08a8,8,0,0,0-1.6-.65c-3.75-1.28-5-1.21-6.14-1.79-2.6-1.38-3.61-6.09-2.7-9.67,1.32-5.23,6.75-8.2,9.4-7.83.18,0,1,.15,1,.13A19.1,19.1,0,0,1,38,71.08a10,10,0,0,1-1.71-17.35c2.78-1.83,6.26-1.4,6.25-1.77s-2.7.12-5.24-1.07a10.06,10.06,0,0,1-5.42-8A10.18,10.18,0,0,1,37,33.09a10.7,10.7,0,0,1,9.53-.19,10.88,10.88,0,0,1,5.42,8.46c0,.43,0,.81,0,.81,0,.34,0,.53,0,.53A19.53,19.53,0,0,1,52.34,38.76Z"/></svg>