<svg xmlns="http://www.w3.org/2000/svg" viewBox="0 0 144 144"><defs><style>.a{fill:none;stroke:#f7ec13;stroke-miterlimit:10;}</style></defs><path class="a" d="M41.78,95.65c-.26.66-1.85,1-7.56,0V76c7.83,0,10.84,0,12,0S47.82,76,49,76c1.46,0,1.7.15,2.07,0,1.42-.59,1.36-3.68,1.43-4.94C52.69,67,55.24,64,59.32,59.29a32,32,0,0,1,11.94-9.07,30.51,30.51,0,0,1,14.8-2.39,26.41,26.41,0,0,1,14.33,5.57c1.3,1.06,9.33,7.77,9.39,18.79A22.5,22.5,0,0,1,104.53,87a22,22,0,0,1-11.62,7c-1.73.4-11.06,2.55-18.31-4-7.08-6.37-6.15-15.57-6-16.4.2-1.67.94-8,6.37-11.94,5-3.67,10.62-2.94,12.41-2.71a14.35,14.35,0,0,1,8.28,3.35,13.77,13.77,0,0,1,4.3,10.34,13.93,13.93,0,0,1-3.34,8.12C95.26,82.45,93,85.32,89.09,86c-3.37.61-8.21-.32-10.67-4.3a9.5,9.5,0,0,1,.32-10.51,8.89,8.89,0,0,1,5.09-3.18C85,67.78,88,67.1,90,69a5.82,5.82,0,0,1,1.59,4.46c0,.56-.13,3.13-2.07,4.3-.07,0-1.94,1.13-3.27.24s-1.1-2.76-1.08-3c.09-1.47.9-2,.6-2.54-.46-.9-3.12-1.1-4.24.12-1.37,1.5.05,4.66,1.09,6.18a7.14,7.14,0,0,0,3.88,3c3.61.93,7.8-2.14,9.32-5.81,2.18-5.26-1.79-10.2-2.06-10.53a12.37,12.37,0,0,0-13.92-3.27C74,64.53,72.1,70.93,72.13,75.22,72.18,82.16,77.4,88,83.51,90c7.17,2.37,14.42-.88,18.4-5.56,6-7,4.09-16.76,1.09-22.4C96.91,50.58,83.19,50.17,82.42,50.16c-11-.15-23.9,7.59-23.85,17.07,0,6,5.23,10.47,7.14,12L69.23,87a30.84,30.84,0,0,0-8.84-6,23.87,23.87,0,0,0-9.2-2.43c-2.87-.12-7.08-.3-10.53,2.55-.53.43-4.38,3.68-3.88,7.5C37.31,92.57,42.3,94.35,41.78,95.65Z"/></svg>