<svg xmlns="http://www.w3.org/2000/svg" viewBox="0 0 144 144"><defs><style>.a{fill:none;stroke:#ed2024;stroke-miterlimit:10;}</style></defs><path class="a" d="M62,139.09H15V91.49H35.85V35.66L67,4.91l61.68,26.36.37,55.1L96.25,90.58a25.74,25.74,0,0,1-2.82.29c-.4,0-.78,0-1.37.07a15.6,15.6,0,0,0-1.81.29,32.25,32.25,0,0,1-3.25.29c0,.17,3.29.15,6.65,1.08a22.3,22.3,0,0,1,8.17,4.34,23.62,23.62,0,0,1-8.46,41.23A24,24,0,0,1,65.8,126.89,23.47,23.47,0,0,1,63,116.62,24.77,24.77,0,0,1,74.05,95.06a23.46,23.46,0,0,1,10.27-3.47l-21.63-.14Z"/></svg>