<svg xmlns="http://www.w3.org/2000/svg" viewBox="0 0 144 144"><defs><style>.a{fill:none;stroke:#6fccdd;stroke-miterlimit:10;}</style></defs><path class="a" d="M26.26,48.37a11,11,0,0,0-3.89,6.05c-.77,3.29.83,4.27,0,6.91-1.23,3.92-5.49,4-6,6.9S19.18,74.3,21.94,76c10.57,6.53,21.7-4,31.09,2.16,4.41,2.92,2.16,5.39,6.91,9.07,8.61,6.67,16.57-1.06,30.65,3.89,8.73,3.06,13.32,8.72,16.84,6.47,2-1.3,1-3.53,3.45-7.34,3.38-5.21,7.5-4.36,11.23-8.63,1.13-1.3,2.13-3,3.88-15.11,1.67-11.56,2.47-17.38.87-19-4.25-4.29-16.2.9-25,4.75C84.47,59.8,75.87,68.51,72,65.64c-3.18-2.37,1.7-9.09-2.15-13.81-4.28-5.24-11.9,1-28.5-2.59C35.06,47.86,30,45.61,26.26,48.37Z"/></svg>