<svg xmlns="http://www.w3.org/2000/svg" viewBox="0 0 144 144"><defs><style>.a{fill:none;stroke:#ed2024;stroke-miterlimit:10;}</style></defs><path class="a" d="M76.55,8.94c8.22,0,14,6.59,14.25,6.92,2.16,2.56,2.9,4.93,5.29,15.88,2.62,12,2.68,13.5,3.67,17.51,3.2,13,6.61,13.61,9,22.81,3.67,14.39-1,27.23-2.85,32.17-3.15,8.58-7.2,19.61-18.74,26.06-9.54,5.35-23.17,7-34.2.82-14.34-8-16.88-25-18.33-34.62-2.39-16,1.85-28.54,7.33-44.79,4.32-12.8,8.64-19.92,11.81-24.44C59.81,18.62,66.61,9,76.55,8.94Z"/><path class="a" d="M72.88,58.62c5.21.87,8.54,5.77,11.81,10.59,1.94,2.86,8,12.1,6.11,24-.63,4-1.72,10.75-7.33,14.66-8.09,5.62-19,.6-21.18-.41-1.77-.82-12.2-5.86-14.66-16.29C43.85,75.16,61.34,56.7,72.88,58.62Z"/></svg>