<svg xmlns="http://www.w3.org/2000/svg" viewBox="0 0 144 144"><defs><style>.a{fill:none;stroke:#3953a4;stroke-miterlimit:10;}</style></defs><path class="a" d="M58.47,29.14c4.57,28-4.11,70.73-5.28,75.33a13,13,0,0,0-.38,4.73c.15,1.34.63,3.66,3.55,7.84s4.32,6.21,6.91,7.66c5.38,3,11.34,1.46,13.45.75,7.41-2.48,10.73-9,11.77-11,4.19-8.19,3.23-17.89-.19-24.66-2.07-4.11-8.08-13.13-14.94-15.7-.71-.26-2.9-1-3-2.24-.12-1.53,3.08-2.87,4.48-3.55,8.37-4,12.6-13.13,13.27-14.57a25.09,25.09,0,0,0-.75-22.42c-3.94-6.9-10.3-9.45-15.13-11.39-3.69-1.49-9.34-3.76-12.33-1.31S58.05,26.61,58.47,29.14Z"/></svg>