<svg xmlns="http://www.w3.org/2000/svg" viewBox="0 0 144 144"><defs><style>.a{fill:none;stroke:#ed2024;stroke-miterlimit:10;}</style></defs><path class="a" d="M27.18,44.16c-2,20,5.61,38.52,5.61,38.52,4.17,10.13,8.05,19.54,18,26.93,3.72,2.78,11.31,8.45,20.94,7.48,2.65-.26,7.7-1.25,16.83-9,7.11-6,21.19-17.93,26.18-38.9,2.17-9.11,5.12-21.51-2.24-30.3-.47-.56-7-8.63-15.33-7.85-3.95.37-7.16,2.64-11.38,5.64a54.59,54.59,0,0,0-7.53,6.59,28.88,28.88,0,0,0-3.61,4.24c-.41.63-.86,1.24-1.25,1.88-.76,1.24-.92,1.7-1.26,1.73-.79.07-1.61-2.34-1.72-2.67-.8-2.31-3.1-5.26-7.69-11.14C61,35.15,54,26.22,44.33,26.83c-7.25.45-13.23,6.1-15.69,11.61A18.13,18.13,0,0,0,27.18,44.16Z"/></svg>