<svg xmlns="http://www.w3.org/2000/svg" viewBox="0 0 144 144"><defs><style>.a{fill:none;stroke:#b9529f;stroke-miterlimit:10;}</style></defs><path class="a" d="M90.3,57.64c7.4,4,11.09,6,13.3,8.08,5.54,5.34,6.24,12.89,6.4,14.65.85,9.17-3.69,15.86-6.06,19.36a35,35,0,0,1-15.66,13c-2.92,1.2-13.58,5.57-24.91.34-1.77-.81-12-5.39-14.82-15.83-.4-1.5-.41-3.49-.6-7.43a39.87,39.87,0,0,1,0-4.51c.08-1.13.16-1.48.23-2.62a40.4,40.4,0,0,0,0-4.43c-.19-2.82-1.82-7.41-5.41-12-4-5.16-5.51-3.92-7.35-7.35-3.18-6-.52-13,.23-15a24.19,24.19,0,0,1,8.93-11.19,25.39,25.39,0,0,1,16.13-4.12c3.53.21,7.91.47,11.56,3.67,4,3.56,5.4,9.17,5.55,9.83a27.43,27.43,0,0,0,.9,4.21,17.75,17.75,0,0,0,4.58,6.68A28,28,0,0,0,90.3,57.64Z"/></svg>