<svg xmlns="http://www.w3.org/2000/svg" viewBox="0 0 144 144"><defs><style>.a{fill:none;stroke:#ed2024;stroke-miterlimit:10;}</style></defs><path class="a" d="M16.56,71.89C22.16,59.44,33,53.41,38.3,50.45A64.27,64.27,0,0,1,58.56,43.4a73.81,73.81,0,0,1,27.91,0C92.13,44.52,103.75,47,115,56c6.16,5,14,11.34,15.57,22,.44,3.07,1.91,11-3.23,17.32-5.34,6.52-15,7.92-21.45,5.29-3.62-1.48-3.1-3-8.22-6.75a42.21,42.21,0,0,0-21.74-8.23A38.53,38.53,0,0,0,59.74,88c-8.15,3.19-8.8,7-18.21,10.87C36.89,100.8,33,102.39,28,101.55c-.39-.06-9.62-1.75-13.51-9.69C10.89,84.5,14.35,76.81,16.56,71.89Z"/></svg>