<svg xmlns="http://www.w3.org/2000/svg" viewBox="0 0 144 144"><defs><style>.a{fill:none;stroke:#b9529f;stroke-miterlimit:10;}</style></defs><path class="a" d="M23.2,77.82c-1.77-2.94.4-7.15,3.41-13,3.27-6.33,5.61-10.84,10.57-13C41,50.29,41.76,52,45,50.2c4.54-2.54,4-6.47,9.2-10.22,2.8-2,3.1-1,6.48-3.07,6.65-4.1,5.77-8.31,10.57-10.91,5.66-3.07,8.36,2,16-1,3.52-1.39,7.33-4.19,10.91-6.82s5.24-4.3,6.81-3.75,1.55,2.3,3.07,8.52c2,8.4,2.69,8.65,3.07,12.62.53,5.65-.75,5.39,0,8.86,1.48,6.9,6.52,7.81,6.82,13,.26,4.58-3.67,4.81-4.43,9.89-1.16,7.67,7.27,10.63,7.84,21.13.1,1.92.31,5.73-1.71,9.21-3.72,6.42-11.48,5.67-24.2,9.2-13.92,3.87-26.2,10.76-33.75,15-10.34,5.8-13.79,9.11-18.07,7.5-5.66-2.14-8.81-11.4-8.18-18.75.68-7.84,5.29-9.09,4.43-15.68A19.15,19.15,0,0,0,31,81.57C27.06,79.22,24.62,80.16,23.2,77.82Z"/></svg>