<svg xmlns="http://www.w3.org/2000/svg" viewBox="0 0 144 144"><defs><style>.a{fill:none;stroke:#6fccdd;stroke-miterlimit:10;}</style></defs><path class="a" d="M47.54,9.51c.53-.2,7.11-2.63,9.41,0,1.73,2-.44,5.16,1.14,6.56,2,1.74,5.92-2.63,11.4-2,4.19.49,4.3,3.32,10.55,6.84a40.83,40.83,0,0,0,14.82,4.57c9,1.33,12.44-.57,14,1.71,2,3-4,6.73-5.13,16.53-.79,7,1.84,8.85,0,15.39-1.54,5.46-3.59,4.91-4.28,9.41-1,6.67,3.43,8.32,2.28,15.68-.44,2.81-1.36,4.3-1.42,8.26,0,3,.43,3.89-.29,4.85-2.14,2.84-9.37-1.55-11.4.57-3.84,4,15.85,26,10.83,32.21-.82,1-1.23.29-9.4,4.27-2.1,1-3.36,1.7-4.28,1.15-1.67-1,.4-4.52-1.14-7.13-2.44-4.13-12.15-3-16.53-2.57-8.13.91-10.62,3-13.69,1.14-1.66-1-1.93-2.25-4.84-8.83-4.13-9.33-4.33-8.56-5.13-11.12-1.63-5.21-.33-6.93.28-18.53.7-13.34-1-12,0-22,.77-7.79,2.28-13.58,0-14.82-2-1.1-5.17,2.4-6.84,1.14-1.41-1.06.5-3.83,0-8.55-.59-5.62-4-8.68-2.85-10s3.88,1.32,6,0c2.51-1.57,2.69-7.75,0-10-1.8-1.49-3.75-.28-4.56-1.43C34.84,20.65,39.88,12.43,47.54,9.51Z"/></svg>