<svg xmlns="http://www.w3.org/2000/svg" viewBox="0 0 144 144"><defs><style>.a{fill:none;stroke:#b9529f;stroke-miterlimit:10;}</style></defs><path class="a" d="M35.11,56.17c4.47-9.7,8.29-17.24,11-22.49,1.61-3.07,3.47-6.52,5-6.23,1.06.21,1.51,3,2.41,8.64.43,2.68,1,5.34,1.4,8s.55,4.07,1.61,4.82c1.71,1.22,4.42.06,5-.2,2.45-1.05,3.76-2.84,6.43-7,5-7.76,5.86-10.09,8.63-10.84.27-.08,2.79-.73,4.42.6s1.46,3.77,1.4,5.62c-.13,4.35.35,8.71.2,13-.3,8.94-.4,13.47,1.81,16.27,1.59,2,3.54,2.75,7.43,4.22,6.23,2.35,8.36,1.26,16.67,3.21,9.18,2.15,11.18,4.55,12,6.23.38.74,1.45,2.8.6,4.21-1.57,2.61-7.57-.58-18.07-.6-2.93,0-8.58.6-19.88,1.81-4,.42-7.58.84-7.83,0s3.63-1.76,7.22-5.22C89.6,73.63,88.62,64,88.53,63.2c-.3-2.51-.58-4.87-2-5.42-2.65-1-5.8,5.44-14.26,12.45-4.77,4-9.66,8-16.87,9.23-2.12.36-8.86,1.51-15.66-1.4-.17-.08-5-2.17-11.44-4.22-1.71-.55-3.83-1.19-4.82-.2-.73.72-.24,1.67-.2,4.82,0,4-.71,5,.2,6a4,4,0,0,0,4.41.61C30.23,84,31,80.41,30.7,77.86,30,71.55,23.08,70.58,22.46,65c-.39-3.51,2-6.37,4.42-9.23,5.7-6.78,15.31-10.86,17.67-8.44,1.88,1.94-2.76,6.06-.8,11.25C46.15,65,56,66.25,57.2,66.41c.95.13,7.39,1,8.44-1.41.82-1.88-2.12-4.88-4.42-7.22-4.68-4.77-7.11-4.61-9.84-8-3-3.73-3.38-8-3.62-10.64-.86-9.41,4.1-15.42,1.61-17.47-1.48-1.22-4.4-.05-5,.2-1.72.69-4.09,2.41-3.81,4a3,3,0,0,0,2.2,2c3.89,1,6.26-6,12.86-6.83.66-.09,4.31-.47,6,1.6,1.49,1.81-.08,3.53.8,5.63,1.72,4.09,9.88,2.84,22.9,7.23,4,1.35,4.82,2,4.81,2.61,0,1.35-7.67.75-16.86,4.61C70,44.08,69,45,69.05,45.81c0,1.36,2.58,2.06,8,4.32,6.78,2.83,10.23,4.29,12.84,6.68,4.37,4,3.69,7.06,5.77,7.33,5.2.7,14.69-17.83,11.52-33.79-.34-1.75-1.5-7.58-4.19-8-1.46-.22-3,1.22-6.68,6.68-4.39,6.5-7.42,12.16-9.82,16.5-5.94,10.71-7.17,11.75-8.78,12.32-3.6,1.27-5.7-1-14.15-3.8-8.26-2.73-18.08-6-22.4-1.84-2.78,2.68-3,8.17-1,11.66,2.57,4.6,7.27,2.83,10.48,7.08,4.92,6.49-1.45,16.7,2.62,19.38,1.62,1.07,4.51.7,6.16-.78,5.57-5-5.28-20.59.39-25.94C62.2,61.31,67.64,61,70,60.87c3.87-.22,5.68.58,7.21-.79,1.95-1.74,2.28-6,.13-8.25-2-2.1-6-2.45-7.21-.92-2,2.69,6.62,8.61,10.87,21.36,1.64,4.89,5.15,15.41.66,24.49-3.67,7.43-10,8.38-11,16.11-.17,1.25-.95,7,2.62,9.3a7.19,7.19,0,0,0,9-1.83c2.37-3.15,1.28-8.46-1.44-10.22-4.75-3.07-11.51,6.7-21.35,4.46-3.83-.87-9.07-3.78-9.3-8-.18-3.28,4.82-4.15,4.72-7.34-.07-2.3-2.58-3.44-9.43-8.65-2.75-2.08-4.95-3.87-6.42-5.1"/></svg>