<svg xmlns="http://www.w3.org/2000/svg" viewBox="0 0 144 144"><defs><style>.a{fill:none;stroke:#ed2024;stroke-miterlimit:10;}</style></defs><path class="a" d="M43.83,38h58.62c1.92,0,2.41-.27,2.64,0,.37.44-.48,1.62-1.32,3.07-1.43,2.45-2.11,3.69-2.29,4.84-.28,1.8.63,2.21,1.6,5.8a18.15,18.15,0,0,1,.9,5.9c-.18,3.54-1.84,4.35-2.29,7.52-.17,1.15.09,1.1,1.48,7.43,1.27,5.75,1.3,6.7.9,7.88-.75,2.2-2,2.17-2.56,4.55A10.33,10.33,0,0,0,102,90.4,26.42,26.42,0,0,0,104,95.09c.82,2,.88,5.35-2.75,11H40c-.93,0-1.06.08-1.13,0-.3-.43,2.95-2.15,4.22-5.27a9.76,9.76,0,0,0-.13-6.8c-1-2.57-2.14-2.25-2.7-4.32s.25-4.24,1.89-8.56c1.07-2.83,1.43-3.06,1.39-4.18-.08-2.73-2.23-3-3.1-5.9-.82-2.7.17-5.42,1.8-9.91,1.11-3.07,1.77-3.62,1.62-5.26-.24-2.68-2.18-3.6-3.15-5.77s-1-5.41,2.47-11.12Z"/></svg>