<svg xmlns="http://www.w3.org/2000/svg" viewBox="0 0 144 144"><defs><style>.a{fill:none;stroke:#ed2024;stroke-miterlimit:10;}</style></defs><path class="a" d="M102.45,28.58q4.89,37.59,9.77,75.19c-41.3,7-54.7,9.33-56.64,9.76-.35.08-2,.47-4.36.83-1.08.16-1.38.18-2.72.36-3.88.55-4,.8-4.63.74-2.59-.24-3.57-5.14-6-11.55-3.84-10-6.61-11.45-6-16.33.15-1.16.62-5.25,3.68-7.64,2.74-2.16,4.79-.78,9-2.58a18.43,18.43,0,0,0,8.16-7.5c2.58-4.16,1.86-6.6,3.16-12a40.31,40.31,0,0,1,9.79-17.8,37.81,37.81,0,0,1,15.88-9.56,41.3,41.3,0,0,1,16-1.84Z"/></svg>