<svg xmlns="http://www.w3.org/2000/svg" viewBox="0 0 144 144"><defs><style>.a{fill:none;stroke:#f7ec13;stroke-miterlimit:10;}</style></defs><path class="a" d="M73.86,15.44c3.23-.15,8.7-.3,16.56,0v97.44c.08,2.79.3,3.52,0,3.68-1.11.58-4.6-8.62-9.47-8.65-2.74,0-5.79,2.88-6.66,5.8-.82,2.76.43,5.13-.86,6s-3.07-.82-4.09,0c-1.24,1,1,3.93,0,6-1.75,3.84-13.77,4.1-15.69,0-1-2.2,1.82-3.62,3.44-9.46,2.28-8.24-1.13-13.77,1.72-15.69,2.4-1.63,6,1.54,7.52,0,2.24-2.24-3.9-10.39-1.93-12.26s9,4.88,12.9,2.36c.94-.6.94-1.26,2.58-6,2.57-7.45,3.93-9.74,3-10.53s-2.13.7-6,1.5c-2.39.49-6.09,1.25-8-.43s-1.24-4.85-.64-8.17C69.83,58.4,74,54.44,72.35,52.21c-1.38-1.86-5.09-.11-6-1.72-1.63-2.83,8.18-11.22,7.31-12.25-.62-.74-5.32,4-9.67,2.58a6.35,6.35,0,0,1-4.3-5.16c-.2-2.83,2.6-3.35,5.37-8,3.38-5.6,2.23-9.79,5.81-11.61A6.86,6.86,0,0,1,73.86,15.44Z"/></svg>