<svg xmlns="http://www.w3.org/2000/svg" viewBox="0 0 144 144"><defs><style>.a{fill:none;stroke:#b9529f;stroke-miterlimit:10;}</style></defs><path class="a" d="M80.36,80.41c-2-.4-14.86-3.16-22.13-15.61-8-13.71-2.48-27.59-1.71-29.41.92-2.2,6.06-13.82,19.35-18.5a33.31,33.31,0,0,1,24.49,1.17c13.26,6.11,17.23,18.8,17.86,21a33.12,33.12,0,0,1-1.17,22.25c-4.51,10.41-13.74,16.21-21.29,18.39a30.84,30.84,0,0,1-5.56,1.07c16.74.32,23.36.43,24.49.43h3.86a1.24,1.24,0,0,1,1,0c2,1-.69,10.21-2.27,14.52s-6.91,18.87-22.45,27.45a46.61,46.61,0,0,1-13.91,5C60.41,132,44.32,120.5,43.24,119.7,24.33,105.76,23.78,83.42,23.76,80.93Z"/></svg>