<svg xmlns="http://www.w3.org/2000/svg" viewBox="0 0 144 144"><defs><style>.a{fill:none;stroke:#b9529f;stroke-miterlimit:10;}</style></defs><path class="a" d="M20.68,106.28l1.77-18.91h6c.69-.11-.11-6.19.68-10.81a16.72,16.72,0,0,1,4.28-8.89c1.12-1.15,3.58-3.69,7.4-4,5-.38,8.43,3.3,9.3,4.22A14.4,14.4,0,0,1,53.9,77H66.84V63.51h7.52V46.35a10.22,10.22,0,0,1,2.56-5.64c.85-1,3.19-3.62,6.45-3.65,4.12,0,7.19,4,8.15,7.24a10.31,10.31,0,0,1,.4,2.45V63.51h2.45V59.24h17.72V77.13h11.23v28.22h-8.78a.86.86,0,0,0-.55,0,1.08,1.08,0,0,0-.53.6c-.39.84-3,1.23-5.54.83a13.13,13.13,0,0,1-3.63-1.15H82.6v-1.21H79.8v1.36H61v-1.24H54.25v1H40.1v.94Z"/></svg>