<svg xmlns="http://www.w3.org/2000/svg" viewBox="0 0 144 144"><defs><style>.a{fill:none;stroke:#6abd45;stroke-miterlimit:10;}</style></defs><path class="a" d="M37.8,56.88c-2.9-3-1.6-11,2.46-15.63.82-.94,2.43-2.5,9-4.91A81.26,81.26,0,0,1,67.12,32c9.31-1.19,14.32-1.83,20.89-.18,4.19,1.06,9.74,2.47,14.22,7.55a23.76,23.76,0,0,1,5.61,14.75,26.92,26.92,0,0,1-1.58,9.65c-1.56,4.69-2.89,4.92-4,8.43-1.32,4-.15,5.52.52,14.74.53,7.28.79,10.92-.35,14.75-.59,2-2.6,8.71-8.07,11.06-2.17.93-3.45.56-10.89-.53-11.94-1.74-17.91-2.62-21.94-2.45-4.37.17-5.92.76-9-.18a16.94,16.94,0,0,1-9.13-7c-3.24-5.34,0-7.75-2.63-16.33-1.86-6-3.92-6.34-4.39-11.58-.34-3.73-.61-6.83,1.05-10,1-2,2.68-3.7,2.11-5.62C39.23,57.91,38.45,57.55,37.8,56.88Z"/></svg>