<svg xmlns="http://www.w3.org/2000/svg" viewBox="0 0 144 144"><defs><style>.a{fill:none;stroke:#f7ec13;stroke-miterlimit:10;}</style></defs><path class="a" d="M21.63,62c10.26,4.55,25.21,2.19,33.13-1a31.67,31.67,0,0,0,13.38-9.56c5.58-7,3.93-12.06,10.51-24.84,2.48-4.81,6.44-12.5,9.93-11.93,2.74.45,4,5.8,4.4,7.63,2.57,11-4.13,15.78-2.38,27.23.5,3.28,1.28,8.39,5.25,12,4.43,4,11.17,4.53,19.59,5.25,5.78.49,9.88.21,13.37,3.34.45.4,3.1,2.78,2.51,4.77-.89,3-8.7,3-9,3-8.52-.1-10.07-5.21-18.82-6.77-1.94-.35-9.31-1.56-16.31,2.51-6.61,3.84-9.15,10.21-10,12.55-3.2,8.39-1.4,16.61-.75,19.57,1.38,6.32,3.73,9.55,3.26,16.56-.38,5.66-2.12,6.59-2.51,6.78-2.42,1.13-6.19-1.56-8.28-4-3.4-4-2.92-8-4-14.55-.64-3.85-2-12.12-6.52-18.82-.86-1.27-7.51-10.87-18.82-13.3-7.7-1.66-11.57,1.29-19.58-2.26-5.82-2.59-6.8-5.49-7-6.28-.91-3.19.43-7.3,3-8.53C18,60.29,20.55,61.5,21.63,62Z"/></svg>