<svg xmlns="http://www.w3.org/2000/svg" viewBox="0 0 144 144"><defs><style>.a{fill:none;stroke:#6fccdd;stroke-miterlimit:10;}</style></defs><path class="a" d="M21,9.59v122.8H47.92c-.77-47.08-1.05-65.14-1.05-66.48V61.4c0-1.13-.18-1.44,0-1.57s1,.29,2.59,1.58a24.18,24.18,0,0,1,3.11,2.74c.94,1.29.79,2.15,1.37,5.1.65,3.39,1,5.09,2,6.71a10.09,10.09,0,0,0,5,4.23c1.77.63,2.17.06,4.85.87,1.75.53,3.15,1,4.11,2.24.26.34.62.93,1.12,3.48s.41,3.4.62,4.61c.81,4.61,4.73,7.45,5.1,7.71a9,9,0,0,0,5.59,2.11c1.61-.07,2.35-.71,4-.37a5.66,5.66,0,0,1,3.24,2c1.23,1.67.74,3.6.74,5.22,0,4.43,3.43,7.6,5.1,9.33a19,19,0,0,0,6.6,4.48c2,.8,4,1.11,5.84,3a14.23,14.23,0,0,1,1.74,2.24c2,2.83,1.67,3.58,2.86,4.85a8.86,8.86,0,0,0,5.1,2.37,11.34,11.34,0,0,0,5.48-.38V11.78H96.6v67c0,1.05.1,1.33,0,1.37s-.93-1.12-1.37-2.11C93.7,74.64,95.06,73,94,69.62c-.15-.46-1.38-4.32-3.61-4.6-1.23-.16-1.62.92-4.23,1.74-1.45.45-2.79.88-4.1.37-2-.77-2.74-3.28-3.11-4.6a11.71,11.71,0,0,1,0-6.22c.75-2.62,2-3.27,1.61-4.73s-2.14-2.24-3-2.61c-2.47-1.07-3.53-.06-5.47-.74-3-1-4.31-4.81-5-6.72-1.34-3.84-.13-5-1.74-8.21-.61-1.21-1.83-3.64-4.23-4.48-1.56-.54-2.41,0-7.34,1.25-5.53,1.38-7.22,1.38-8.7,1.12-1.27-.22-3.53-.62-4.36-2.24-.73-1.45.21-2.82.75-5.1a15.44,15.44,0,0,0-.62-9.08C39,10.77,32.42,9,25,9.67Z"/></svg>