<svg xmlns="http://www.w3.org/2000/svg" viewBox="0 0 144 144"><defs><style>.a{fill:none;stroke:#f7ec13;stroke-miterlimit:10;}</style></defs><path class="a" d="M30.84,66.58a21.56,21.56,0,0,0,10.22-2.65,22.52,22.52,0,0,0,8.33-8.33c1.24-2,1.39-2.87,5.29-14.57,1.91-5.71,2.45-7.21,4.17-8.51a11,11,0,0,1,9.65-1.33c4.29,1.37,6.42,5,10.41,12.11,4.7,8.36,3.94,10.28,7.76,14.58a28.7,28.7,0,0,0,10.4,7.38c5,2,7.59,1.14,15.52,2.46a76.49,76.49,0,0,1,11.55,2.83c-1.46,0-3.48-.09-5.87,0a72.85,72.85,0,0,0-17.6,2.84c-7.56,2.27-11.33,3.41-15,6.82s-5.22,7.41-8,14.38c-2.54,6.49-3.1,10.69-7.38,15.33-2.81,3-4.51,3.34-5.11,3.4-5,.55-9.32-6.23-10.78-8.51-3.94-6.14-2.57-8.55-6.25-16.84-2.15-4.84-4.17-9.39-8.33-12.87C33.34,69.58,24.7,69.53,19.86,70Z"/></svg>