<svg xmlns="http://www.w3.org/2000/svg" viewBox="0 0 144 144"><defs><style>.a{fill:none;stroke:#b9529f;stroke-miterlimit:10;}</style></defs><path class="a" d="M42.38,62.63a12.06,12.06,0,0,0-1,8.86c.91,3.1,2.85,4.42,5.46,7.16,1.57,1.65,3.77,5.08,8.18,11.93,7.67,11.93,8.62,15.63,11.59,15.68,2.22,0,3.93-2,6.82-5.45,5.19-6.2,4.84-10.36,8.18-11.25s5.83,2.77,8.18,1.36c2.06-1.23.49-4.24,2.73-7.16,2.65-3.44,6.79-1.75,9.2-4.77,2.24-2.8,1.38-7.62,0-10.57-3.06-6.54-9-4.63-15.68-12.27-4.34-5-4-8.31-7.84-9.54-4.27-1.37-7.27,1.91-10.23,0-3.48-2.25-2.21-8.67-3.75-8.87-1.3-.17-2,4.53-5.79,10.23a36.94,36.94,0,0,1-7.84,8.52C46.05,60,44.13,59.67,42.38,62.63Z"/></svg>