<svg xmlns="http://www.w3.org/2000/svg" viewBox="0 0 144 144"><defs><style>.a{fill:none;stroke:#3953a4;stroke-miterlimit:10;}</style></defs><polygon class="a" points="14.42 70.86 15.99 53.33 19.68 50.35 24.23 49.3 27.04 53.33 30.72 49.3 32.12 57.89 34.75 53.51 38.26 61.4 40.53 56.66 42.11 54.73 42.11 57.36 44.22 62.45 50.88 53.86 52.63 54.03 51.4 56.14 54.56 62.8 61.22 56.31 61.22 59.12 65.43 69.63 71.74 62.1 76.3 72.44 84.18 62.27 86.29 62.8 85.23 64.72 89.62 73.67 97.53 65.78 99.08 67.88 99.08 69.46 101.54 73.67 107.67 68.76 108.9 70.33 113.11 82.61 122.57 73.31 123.27 75.07 129.58 83.66 125.38 87.34 99.08 92.95 96.1 89.09 88.56 94.7 88.92 85.41 75.24 92.77 73.67 80.5 71.04 86.64 65.25 90.32 59.29 78.92 53.68 83.13 49.3 74.72 42.81 82.78 40.18 76.3 37.55 79.63 35.63 79.1 36.33 74.54 33.52 72 29.84 80.33 28.44 68.58 25.99 72.96 23.18 66.83 18.1 73.14 14.42 70.86"/></svg>