<svg xmlns="http://www.w3.org/2000/svg" viewBox="0 0 144 144"><defs><style>.a{fill:none;stroke:#6fccdd;stroke-miterlimit:10;}</style></defs><path class="a" d="M48.26,119.15l3.16,15.54L126,120.12,92.22,36.05,60.66,8.6,27.13,10.78,33.2,39A23.2,23.2,0,0,0,41,36.05c1.81-1.09,2.86-2.1,3.65-1.7,1.15.58,0,3.26.73,6.56a12.11,12.11,0,0,0,6.32,8c2.84,1.39,8,2.37,11.66-1,3.84-3.57,2.74-9.15,2.67-9.48L70.37,38l6.2,15.79,4.25,12.39-8.5,3.16a15.84,15.84,0,0,0,1,5.1c1,2.6,2.13,3.54,1.7,4.62-.59,1.49-3.2.62-5.59,2.18C66.74,83,65.2,87.18,66.24,91c1.49,5.4,7.36,6.67,8,6.8a11.34,11.34,0,0,0,7.53-1.21l3,8Z"/></svg>