<svg xmlns="http://www.w3.org/2000/svg" viewBox="0 0 144 144"><defs><style>.a{fill:none;stroke:#f7ec13;stroke-miterlimit:10;}</style></defs><path class="a" d="M43,43.19c-.59,6.62,7.34,8.92,7.72,17.85.25,5.6-2.64,10-4.34,12.55C40.84,81.94,34.82,81.2,28,90c-3.32,4.29-5.9,7.62-5.3,10.61,3,15.34,88.92,19.46,97.47-2.41.69-1.75,2.32-7.35,0-12.55-2.69-6.05-7.88-5.19-14.47-11.58-8.69-8.43-7.54-17.56-13-18.34-5-.7-8,6.56-11.59,5.31-3.85-1.36-.91-10.14-6.27-19.3-1-1.71-6.34-10.84-15.44-11.1C51.52,30.41,43.54,36.86,43,43.19Z"/></svg>