<svg xmlns="http://www.w3.org/2000/svg" viewBox="0 0 144 144"><defs><style>.a{fill:none;stroke:#f7ec13;stroke-miterlimit:10;}</style></defs><path class="a" d="M18.86,131,13,49.72,18.86,13l82,4.4L127.1,13V59.51L131,122.69l-33.79,2-17.63,2v-22c-.18-7.16-.79-7.89,0-8.82,2.37-2.77,9,2.31,16.65,2,12.37-.57,20.77-15.24,21.55-16.65,8.69-15.64,3.8-37.76-9.3-49.46-9.82-8.77-21.44-9.19-38.2-9.8-15.56-.56-28.54-1-38.2,7.84-8.53,7.82-9.76,18.58-11.27,31.83C19.06,76.9,17,95.09,28.66,104.57c8.48,6.89,24.06,9.05,32.81,1,4.79-4.42,6-10.49,6.37-13.72l1.47,35.76Z"/></svg>