<svg xmlns="http://www.w3.org/2000/svg" viewBox="0 0 144 144"><defs><style>.a{fill:none;stroke:#6abd45;stroke-miterlimit:10;}</style></defs><path class="a" d="M49.52,14,55.8,28.88,46.5,47.23l8.11,4.2L47.24,61.82l10.39,9.57-11.71,20,13.77-2.5,18.78,20.92,7-20L95,92,91.73,69.7l9.42-9.5L88.48,54l6.93-13.84-9.13-4,8.17-22.31L120,13.8v7.07c.63,29.35.7,50.9.42,55.95-.13,2.38-.3,5-.3,5-.23,3.74-.5,7.68-.6,8.81a51,51,0,0,1-4.6,17.22,39.55,39.55,0,0,1-10.21,12.61,41.19,41.19,0,0,1-15,7.41,58.65,58.65,0,0,1-28.43,1.2c-6-1.24-15.06-3.1-23.22-10.41C26.35,108.17,24.59,93.8,24.22,89.42l-.8-75.68Z"/></svg>