<svg xmlns="http://www.w3.org/2000/svg" viewBox="0 0 144 144"><defs><style>.a{fill:none;stroke:#6fccdd;stroke-miterlimit:10;}</style></defs><path class="a" d="M26.3,46.71C33,63.54,46.82,71.65,59.61,89s15.15,31.14,26.91,33.32a34.65,34.65,0,0,0,9.61,0c3.21-.48,11.92-1.76,17.94-9,1.86-2.23,6.5-7.8,5.13-13.46-1.56-6.37-9.1-6-11.54-13.45-1.26-3.83.67-4.14,0-12.17-.65-7.81-2.55-8.37-1.92-12.82,1-7.07,6.38-9.8,5.13-12.17s-6.65-.06-14.74-.64c-2.25-.16-16.21-1.16-23.7-10.25-6-7.28-3.57-14.54-9-16.66-3.82-1.5-5.6,1.91-13.46,1.92-7.46,0-8.61-3.06-13.45-1.92C30.66,23.11,26.33,29.09,25,34.54A20,20,0,0,0,26.3,46.71Z"/></svg>