<svg xmlns="http://www.w3.org/2000/svg" viewBox="0 0 144 144"><defs><style>.a{fill:none;stroke:#6fccdd;stroke-miterlimit:10;}</style></defs><polygon class="a" points="12.01 69.5 8.78 78.85 14.75 78.85 17.65 75.95 23.3 78.85 27.17 76.27 32.97 78.85 36.52 76.11 41.2 78.85 45.55 77.08 50.71 78.85 52.65 76.6 58.13 78.85 63.45 76.11 66.84 77.56 73.13 76.44 77.97 78.05 82 74.18 86.35 77.72 90.55 74.18 94.42 77.08 100.22 74.18 103.28 76.44 109.25 74.18 112.96 75.79 117.31 74.18 123.12 77.89 126.51 74.18 131.34 76.11 135.22 74.18 134.09 66.6 129.57 67.73 124.41 65.15 121.02 67.89 115.54 65.15 111.51 66.92 106.99 65.15 101.83 68.53 98.29 65.95 93.74 68.05 88.61 65.95 85.87 68.05 81.68 66.28 76.35 69.5 72.97 67.24 67.65 69.18 63.78 66.92 59.26 69.82 55.71 66.92 50.71 69.34 47.33 67.08 42.33 69.66 38.02 67.88 34.24 70.29 29.31 66.93 26.27 68.72 20.7 67.46 17.45 70.92 12.01 69.5"/></svg>