<svg xmlns="http://www.w3.org/2000/svg" viewBox="0 0 144 144"><defs><style>.a{fill:none;stroke:#b9529f;stroke-miterlimit:10;}</style></defs><path class="a" d="M45.5,131.79c-.33-.16-7.19-57.38-14.24-116.78l24-2.92L58,35.18l23.09-2.81L84,55.68l22.66-2.76,2.88,23.62-6.52.79-4.32.53-2.1.26L95,78.31c-2.88.35-5.69.54-5.68.69a24.59,24.59,0,0,1,6.31.82,17.23,17.23,0,0,1,3,1.25,26.79,26.79,0,0,1,8.79,6.45,23,23,0,0,1,5.23,12.62,23.64,23.64,0,0,1-3,13.84,23.17,23.17,0,0,1-21.39,11.78A23.71,23.71,0,0,1,76.8,122.2c-1.33-.84-6.57-4.15-8.81-10.23-.87-2.36-1.29-5.16-1.54-5.11a16.77,16.77,0,0,0,0,3,24.57,24.57,0,0,1-1.24,6.58,23.87,23.87,0,0,1-7,10.07,22,22,0,0,1-10.92,5.29,4.31,4.31,0,0,0-1,.07,1.09,1.09,0,0,1-.42,0A1.31,1.31,0,0,1,45.5,131.79Z"/><path class="a" d="M42.78,84.74A20.83,20.83,0,0,1,52,86.35a22.25,22.25,0,0,1,5.1,3.1c2,1.55,5.54,4.3,7.29,8.86,1,2.73,1.07,5.14,1.36,5.12s.19-2.24.37-4.15a22,22,0,0,1,4.17-10.63c4.62-6.55,11.87-8.53,14-9Z"/></svg>