<svg xmlns="http://www.w3.org/2000/svg" viewBox="0 0 144 144"><defs><style>.a{fill:none;stroke:#f7ec13;stroke-miterlimit:10;}</style></defs><path class="a" d="M117.92,73.6c-25.11,8.6,42.5,55.53-49.43,49.42-27.24-1.8-48.09-22.16-49.43-49.42C15.71,5.09,46.48,40.32,68.49,24.17,94.49,5.09,143.74,64.75,117.92,73.6Z"/><path class="a" d="M114.55,73.48c-23.26,8,39.4,51.47-45.8,45.81C43.5,117.61,24.18,98.75,22.94,73.48,19.83,10,48.35,42.64,68.75,27.67,92.84,10,138.49,65.28,114.55,73.48Z"/><path class="a" d="M110.67,73.35C89.53,80.59,146.46,120.11,69,115c-22.93-1.52-40.5-18.66-41.62-41.62C24.6,15.65,50.51,45.32,69,31.72,90.94,15.65,132.42,65.89,110.67,73.35Z"/><path class="a" d="M106.94,73.22c-19.1,6.54,32.35,42.26-37.61,37.61C48.6,109.46,32.73,94,31.71,73.22,29.16,21.08,52.58,47.89,69.33,35.6,89.12,21.08,126.6,66.48,106.94,73.22Z"/><path class="a" d="M103.83,73.11c-17.4,6,29.46,38.49-34.26,34.26C50.69,106.11,36.23,92,35.31,73.11,33,25.63,54.31,50,69.57,38.85,87.59,25.63,121.72,67,103.83,73.11Z"/><path class="a" d="M104,73.11c-17.49,6,29.62,38.7-34.44,34.44-19-1.26-33.51-15.44-34.44-34.44C32.78,25.38,54.22,49.92,69.55,38.67,87.67,25.38,122,67,104,73.11Z"/><path class="a" d="M103.86,73.11c-17.42,6,29.48,38.52-34.3,34.29C50.67,106.14,36.2,92,35.27,73.11,33,25.58,54.3,50,69.56,38.82,87.6,25.58,121.77,67,103.86,73.11Z"/><path class="a" d="M100.19,73c-15.41,5.28,26.1,34.1-30.35,30.35C53.12,102.22,40.32,89.72,39.5,73,37.44,30.92,56.33,52.55,69.84,42.63,85.81,30.92,116.05,67.55,100.19,73Z"/><path class="a" d="M96.22,72.84C83,77.38,118.63,102.13,70.15,98.91,55.78,98,44.78,87.22,44.08,72.84,42.31,36.71,58.54,55.29,70.15,46.77,83.86,36.71,109.84,68.18,96.22,72.84Z"/><path class="a" d="M93.19,72.74c-11.59,4,19.61,25.62-22.81,22.8-12.57-.83-22.19-10.22-22.8-22.8C46,41.13,60.23,57.38,70.38,49.93,82.38,41.13,105.1,68.66,93.19,72.74Z"/><path class="a" d="M88.84,72.59C79.63,75.74,104.42,93,70.71,90.71c-10-.67-17.63-8.13-18.12-18.12-1.23-25.12,10-12.21,18.12-18.13C80.25,47.47,98.3,69.34,88.84,72.59Z"/><path class="a" d="M85.08,72.45C77.93,74.9,97.18,88.27,71,86.53A14.71,14.71,0,0,1,56.92,72.45C56,52.94,64.73,63,71,58.38,78.41,52.94,92.43,69.94,85.08,72.45Z"/><path class="a" d="M80.66,72.3c-4.74,1.62,8,10.47-9.32,9.32A9.74,9.74,0,0,1,62,72.3C61.39,59.39,67.19,66,71.34,63,76.24,59.39,85.52,70.63,80.66,72.3Z"/><path class="a" d="M77,72.18c-2.75.94,4.66,6.08-5.41,5.41a5.66,5.66,0,0,1-5.42-5.41c-.37-7.51,3-3.65,5.42-5.42C74.46,64.67,79.86,71.21,77,72.18Z"/></svg>