<svg xmlns="http://www.w3.org/2000/svg" viewBox="0 0 144 144"><defs><style>.a{fill:none;stroke:#f7ec13;stroke-miterlimit:10;}</style></defs><path class="a" d="M34,39.13c-5.3,11.3-10.47,19.23-12.49,25C17,76.89,24,90.06,25.52,92.86c7.11,13.29,19.41,18.37,25.61,20.94,5.45,2.25,20.18,8.14,37.8,2.81,3.72-1.13,21.49-6.5,30.31-24.37,1.71-3.48,7-14.57,3.75-28.43-.62-2.65-5.31-22-22.81-28.12-2.44-.85-12.56-4.2-23.43.94-1.34.64-12.28,6-15.62,17.81-2.72,9.6.55,20.09,2.5,23.12a7.45,7.45,0,0,1,1.25,3.12,9.84,9.84,0,0,1-1.25,5.62c-1,2.23-1.54,3.34-2.5,3.75-3.22,1.38-9-4-9.06-4.06h0s-2.59,3-2.19,5c.28,1.37,1.84,2,4.38,3.12,8.23,3.72,7.36,4.33,9.68,4.69,5.85.91,10.87-3,12.19-4.06,8.29-6.51,8.14-17.47,8.12-18.12-.18-6.11-2.85-6.06-4.06-15-.57-4.19-1.25-9.74,1.56-15.3,1-2.07,3-5.89,6.87-6.88,4.86-1.23,9.31,2.81,10,3.44,5.33,4.84,5.48,12.35,5.62,19.68a63.32,63.32,0,0,1-3.75,22.18c-2.47,7.52-4.17,12.68-9.06,17.81a33.57,33.57,0,0,1-15,9.06c-15.27,4.15-27.56-5-28.43-5.63-2.57-2-8.95-6.87-10.62-15-1.42-6.9,1.23-12.87,5.93-23.43,4.55-10.22,7.29-12,7.5-18.43a24,24,0,0,0-4.06-14.06c-5.41-7.89-14.7-10.57-15.31-9.69-.39.56,2.88,2.3,3.75,6.25A11.65,11.65,0,0,1,34,39.13Z"/></svg>