<svg xmlns="http://www.w3.org/2000/svg" viewBox="0 0 144 144"><defs><style>.a{fill:none;stroke:#6fccdd;stroke-miterlimit:10;}</style></defs><path class="a" d="M50.71,94.25c-1.51-1.15-10.57-8.31-11.47-20-.43-5.46,1.11-9.66,2.59-13.69,1.42-3.87,3-8,6.29-8.88,2-.55,2.55.69,4.81.37,4.78-.68,5.13-6.62,9.62-8.14,3.19-1.07,4.37,1.47,11.47,3.33,8.5,2.23,10.07-.57,15.17,1.85,4.49,2.13,6.69,5.9,10.36,12.21s5.78,9.92,5.18,14.43c-.64,4.87-3.94,8.11-8.88,13a42.48,42.48,0,0,1-10,7.77C76.74,101.24,61.83,102.74,50.71,94.25Z"/></svg>