<svg xmlns="http://www.w3.org/2000/svg" viewBox="0 0 144 144"><defs><style>.a{fill:none;stroke:#6fccdd;stroke-miterlimit:10;}</style></defs><path class="a" d="M47.31,36.8c4.82-3.5,7.24-5.26,8.14-6.79,1.08-1.81,1.44-4.47,2.18-9.77.56-4.11.27-4.29.81-6,.27-.83,1.81-5.61,6-7.87,5.93-3.22,14.77,0,15.48,3.53.6,3-5,4.67-4.61,9,.29,3.43,4,4.53,3.8,8.14-.13,1.89-1.17,1.89-1.9,4.62-.25.92-1.48,5.46.81,8.15C79.86,42,83.25,42,85.87,42c3.76,0,4.78-1.2,7.6-.54,2.63.61,2.72,1.86,4.89,2.71,5.26,2.06,8.65-3.77,15.75-3,3.29.37,7.33,2.16,8.41,5.16.62,1.72-.24,2.37-.54,6.52-.39,5.37.8,7.82-.27,8.42-1.77,1-6.17-5.07-7.88-4.07-1.4.81.92,5.25-.81,6.78s-5.36-2.61-11.4-2.71c-6.77-.12-10.21,5.05-13.85,3-2.09-1.19-2.12-3.54-4.08-3.81-2.47-.33-4.77,3.1-4.88,3.26-3.54,5.37-.53,13.59,1.35,18.74,2.75,7.5,5.82,10.92,4.08,13.85-1.18,2-3.21,1.44-4.62,3.8-1.65,2.78-1,7.17,1.36,9.77,3,3.35,7.92,2.69,11.67,2.18,2.91-.4,7.7-1,9-4.08,1.38-3.32-2.6-6.89-1.09-8.69.79-1,2.29-.41,6.52,0,7.4.72,9.94-.24,10.59,1.09.72,1.5-2.21,3.39-5.16,7.87-4.1,6.22-2.19,8.22-5.43,13.85-3.75,6.51-9.73,9.79-14.67,12.49-4.49,2.47-7.4,4.06-11.67,4.35-4.87.33-6.07-1.39-13.58-1.63-5.83-.19-6.15.82-9.23,0-.44-.12-7.15-2-10.32-8.15-2.32-4.49-.07-6.09-2.44-12.49-2-5.35-4-5.33-4.08-8.69-.14-4.6,3.57-5.49,4.08-11.13.37-4.1-1.54-4.26-1.36-8.69.23-5.62,3.32-6,3.8-12a19.9,19.9,0,0,0-2.17-10.32c-1.35-2.76-2.07-4.27-3.73-4.95-3-1.24-5.17,1.84-10.94,2-2,0-4.2.09-6-1.09-6.07-4.07-3.32-20.43,1.09-21.45,2-.46,2.76,2.52,6.78,3,3.13.36,5.85-1.08,9-2.76A47.28,47.28,0,0,0,47.31,36.8Z"/></svg>