<svg xmlns="http://www.w3.org/2000/svg" viewBox="0 0 144 144"><defs><style>.a{fill:none;stroke:#ed2024;stroke-miterlimit:10;}</style></defs><path class="a" d="M97.69,48.85C108,37.55,118.18,12.91,119.76,9L124,12.87c-3.5,5.57-17.73,28.5-22,43.59a29.12,29.12,0,0,0-1.19,7.76c-.1,9.69,5,16.9,7.1,20.11,12.3,18.5,19.65,43,15.76,45.72-1.62,1.14-4.11-2.25-9.06-1.19-4.75,1-5.54,4.79-9.07,4.73-4-.07-4.45-5-8.67-5.91-6.37-1.35-11.31,8.74-15.71,7.09-3.91-1.45-2.11-10.18-6.36-11.82S65.68,128.22,63,126.5c-2.26-1.46.84-6.69-1.58-9.46-4-4.55-17.24,3.83-20.89-.4-2.75-3.18,3-10,0-13.4-3.19-3.61-12.44,1.27-14.19-1.57s6.28-8.1,4.73-13-11.53-4.6-11.82-7.88c-.35-3.91,13.51-7.23,13-11-.32-2.41-6.09-2.63-6.3-5.12-.25-2.88,7.31-4,8.27-8.67.8-3.85-3.61-6.45-2.75-7.89,1.76-3,21.26,6.76,42.56,9.07,3.49.38,9.8.86,16.16-2.37A25.32,25.32,0,0,0,97.69,48.85Z"/></svg>