<svg xmlns="http://www.w3.org/2000/svg" viewBox="0 0 144 144"><defs><style>.a{fill:none;stroke:#f7ec13;stroke-miterlimit:10;}</style></defs><path class="a" d="M123.22,68.64c-7.88-3.21-16.34-.09-23.72,2.64-7.77,2.87-10.26,5.64-14.76,7.91-17.59,8.86-47.36.81-58-16.34-8.21-13.25-2.55-28-5.27-28.47-5.05-1-19.33,50.93-14.76,52.71C9.16,88,14,73.66,23.59,73.39c5.6-.16,7.05,4.69,14.23,9,15.43,9.17,26.91-2.4,41.65,5.8,9.91,5.51,7,12,16.86,17.39,12.86,7,35.21,5.3,40.59-7.38C141.21,88.07,133.9,73,123.22,68.64Z"/></svg>