<svg xmlns="http://www.w3.org/2000/svg" viewBox="0 0 144 144"><defs><style>.a{fill:none;stroke:#6abd45;stroke-miterlimit:10;}</style></defs><path class="a" d="M98.76,30.05c5.45,5.48,6.1,11.56,12.39,13.3,4.82,1.34,8-1.24,10.08.92,2.55,2.69-1.89,7.27,0,14.22,1.59,5.81,5.53,5.62,6,10.08.67,6.85-8.29,10.39-6.88,16.05.83,3.37,4.2,2.93,5.5,6.42,2.18,5.87-3.92,16.21-12.38,19.72-7,2.9-11.49-.54-17,3.67-4.25,3.27-3.09,6.53-6,7.8-8.18,3.6-21.83-21-31.64-17.89-7,2.19-5.54,16.23-12.38,17.43-4.56.8-10.49-4.5-12.38-10.09-2.29-6.74,2.31-10.92-.46-14.67-3.43-4.65-11.95-.25-15.6-5.05-2.27-3-1.15-7.61.46-14.21,1.55-6.36,2.8-6.09,4.13-11.47,2.46-9.94-.58-15.8,2.75-17.88,2.66-1.67,5.58,1.45,8.26-.46,3-2.15.69-7.08,3.67-10.55,2.36-2.77,6.14-2.32,10.08-2.75,13-1.41,13.79-10.76,25.23-12.84C81.26,20.23,92.24,23.49,98.76,30.05Z"/></svg>