<svg xmlns="http://www.w3.org/2000/svg" viewBox="0 0 144 144"><defs><style>.a{fill:none;stroke:#6fccdd;stroke-miterlimit:10;}</style></defs><path class="a" d="M70.91,57.16a32.32,32.32,0,0,0-4.25-11.4A31.15,31.15,0,0,0,53.92,33.87c-14-6.78-28.28,1.15-29.37,1.77C11.89,42.84,8.79,55.82,8.1,58.72A45.93,45.93,0,0,0,9.22,80.5c6,19.94,36.66,40.64,79.59,52.79a93.92,93.92,0,0,0,10.57-8c4-3.47,21.89-19.75,30.41-49C135.67,56,141.87,34.72,129.72,22,119.38,11.18,98.28,5.94,84.24,16.37c-9.93,7.37-11.92,19.26-12.37,22.68Z"/></svg>