<svg xmlns="http://www.w3.org/2000/svg" viewBox="0 0 144 144"><defs><style>.a{fill:none;stroke:#6fccdd;stroke-miterlimit:10;}</style></defs><polygon class="a" points="108.85 135.06 127.53 129.04 127.53 117.99 128.74 112.79 126.13 103.13 116.89 90.08 119.7 79.03 113.88 44.69 102.03 28.22 94.8 23 91.18 19.18 89.77 14.16 87.24 13.36 87.24 8.94 78.33 10.31 70.09 11.82 67.68 14.56 58.81 12.8 54.63 17.32 50.31 22.68 44.59 23.6 40.43 26.86 36.35 33.84 27.12 40.98 19.52 54.21 16.78 59.55 18.28 80.56 19.68 90.08 20.5 99.56 20.5 106.14 15.26 112.79 16.78 121 23.62 127.03 31.13 129.64 82.6 133.26 108.85 135.06"/></svg>