<svg xmlns="http://www.w3.org/2000/svg" viewBox="0 0 144 144"><defs><style>.a{fill:none;stroke:#3953a4;stroke-miterlimit:10;}</style></defs><path class="a" d="M29.13,103c-11-13.73-14.82-24-16.3-28.57-1.67-5.12-3.92-12.89-.8-16.09,2.89-3,8.64-1.88,11.06-1.41,2.13.41,4.75,1.25,14.48,7.64,2.73,1.79,5,3.09,7.74,5.27s3.88,3.33,4,3.19c.37-.33-6.92-7.68-14.52-18.26a142.57,142.57,0,0,1-10.9-18.07c-7.24-13.47-7.27-17-5.87-19.23,1.8-2.88,5.77-3.41,6.32-3.48,4.5-.6,8.14,2.11,10.91,4.13,17.77,13,15.13,8.88,23.94,16.71,8,7.15,12.9,12.94,13.48,12.45S68,40.5,63.42,29.57,60.24,15.7,60.84,14.66C63.58,10,71.12,10,72.13,10c2.62,0,6.69.57,17,8.07a130.6,130.6,0,0,1,17,14.71A140.48,140.48,0,0,1,120.46,50a112.42,112.42,0,0,1,9.1,15.55c3.23,6.27,4.44,9.59,3.81,13.49-.19,1.13-.86,5.2-4,7.22-2.94,1.9-6.81,1.2-11.74-.64-13.92-5.19-22.56-14.29-23-13.81s7.92,9,16.84,20.71a103.28,103.28,0,0,1,13.1,25.81c1.1,3.15,2.14,6.6.45,8.84-2.84,3.76-11.38,1.52-13,1.1-3.57-.94-6.55-2.47-15-9.1a224,224,0,0,1-21-18.07c-4.35-4.25-7.67-7.83-8-7.55s3.25,4.36,7.29,11.17c6.44,10.85,6.85,16.65,6.9,18.9.07,3,.14,6.29-2.06,8.46-3.24,3.19-9.2,1.83-12.78,1-5.3-1.28-11.09-3.91-20.78-12.19A135.09,135.09,0,0,1,29.13,103Z"/></svg>