<svg xmlns="http://www.w3.org/2000/svg" viewBox="0 0 144 144"><defs><style>.a{fill:none;stroke:#b9529f;stroke-miterlimit:10;}</style></defs><path class="a" d="M40.8,69.07a26.91,26.91,0,0,1,11.74-13c1.94-1,9.76-5.25,17.21-2.47,3.06,1.14,5.91,3.4,8.9,5.77,1.78,1.42,2.17,1.9,4.88,4.31,4.82,4.28,7.23,6.42,10,8.22a28.77,28.77,0,0,0,12.37,5.15A26,26,0,0,0,121,74.31a24.85,24.85,0,0,0,11.52-11.66,24.61,24.61,0,0,0,1.7-14.56,26.29,26.29,0,0,0-5.15-11.83,25.83,25.83,0,0,0-10.93-7.85A25.4,25.4,0,0,0,105.84,27a24.79,24.79,0,0,0-11.63,5.14c-1.77,1.42-5.88,4.72-7.48,10.41a12.56,12.56,0,0,0-.39,6.55,12.35,12.35,0,0,0,5.06,7.21,12.73,12.73,0,0,0,8.38,2.29,12.93,12.93,0,0,0,7.89-3.8,11.15,11.15,0,0,0,3.39-5.33,10.86,10.86,0,0,0-1-7.67,13,13,0,0,0-4.61-4.64,12.5,12.5,0,0,0-3.22-1.7A7.66,7.66,0,0,0,98.8,35c-.6.09-1.3.28-1.42.06s.25-.51.4-.65a16.33,16.33,0,0,1,3.65-2.85,19.06,19.06,0,0,1,5.64-2.08,15.28,15.28,0,0,1,8.37.63,14.64,14.64,0,0,1,6,4.25,15.25,15.25,0,0,1,3.28,7.47,15.22,15.22,0,0,1-.54,8.43c-1.38,3.62-3.93,5.59-5.87,7.09a24.4,24.4,0,0,1-10.49,4.53,28,28,0,0,1-7.42.52,33.78,33.78,0,0,1-8.43-1.83c-2.9-.94-3.5-1.38-11.4-4.89a91.52,91.52,0,0,0-9.89-4,25.94,25.94,0,0,0-6.77-1.51,21,21,0,0,0-8.25,1.33,24.36,24.36,0,0,0-6.25,3.61,34.35,34.35,0,0,0-5.3,4.93,48.62,48.62,0,0,0-5.21,7.13c-1.4,2.3-1.29,2.5-4.06,7.68-.78,1.46-1.64,3-3.36,6.12-3.72,6.7-3.81,6.7-5.51,9.88-1.28,2.4-1.42,2.77-3.51,6.69-1,2-1.76,3.3-2.77,5.12-2.88,5.2-2.7,4.45-3.52,6.23-1,2-2.16,4-3,6a3.84,3.84,0,0,1-.64,1.05,2.72,2.72,0,0,1-.86.68c-.56.25-1,.06-1.73,0a33.7,33.7,0,0,0-3.57.14l-1.52.09L5,119.24l19.8-.33-.18-2c-5.2,0-7.29.08-7.65.09l-.58,0c-.51,0-.56,0-.61,0-.45-.29.6-2.47.6-2.47,1.73-3.56,3.81-6.93,3.92-7.11,1.72-2.8.94-2.28,3.25-6.41,2.21-3.93,2.88-4.32,4-6.85.66-1.54,1.75-2.94,2-4.59A2.56,2.56,0,0,1,30,88.39c.11-.13.45-.53.73-.46s.39.76.43,1.14c.14,1.14.56,2.24.65,3.39.13,1.72.49,1.65,1.55,5.87.63,2.49.47,2.36,1.21,5.46.66,2.72.66,2.29,1.3,5s1.08,5,1.38,6.75c.06.38.11.69.15.9l.06.64-6.35.17.19,2,13.25-.33,14.69.07-.1-1.5a9,9,0,0,0-2.85.21.66.66,0,0,1-.51,0,.41.41,0,0,1-.15-.15,5.6,5.6,0,0,1-.81-2.65c0-1.47-.8-2.06-2.89-7.8-.51-1.39-.87-2.5-1.6-4.73-1.06-3.28-1.26-4.13-2.49-8.11L45.5,86.84c-.77-2.4-1.42-4.86-2.31-7.22-1.15-3.05-2-4.74-2.33-7.67A18.29,18.29,0,0,1,40.8,69.07Z"/></svg>