<svg xmlns="http://www.w3.org/2000/svg" viewBox="0 0 144 144"><defs><style>.a{fill:none;stroke:#f7ec13;stroke-miterlimit:10;}</style></defs><path class="a" d="M37.55,18.1c.5-.9,6.76,3.12,13.38,3.76,4.9.47,11.8-.74,20.65-8h0c.75-1,.56-2.32,3.57-5.7A3.72,3.72,0,0,1,77,6.77a4.66,4.66,0,0,1,1.56,0c1.87.07,2.21-.32,2.77-.11,1.31.46,1.24,3.18,1.56,5.11.56,3.39,2.54,5.59,5.11,8.44,4.67,5.18,10.59,6.78,13.44,7.55,3.93,1.06,11.14,3,17.11-.11,1.29-.67,4.47-2.61,5.11-1.89.17.2.06.49,0,1.67s0,1.41,0,2.33c0,3.54-.85,12.82-.34,22.33,0,.68.1,1,.11,1.78,0,.93,0,1.4-.11,1.55-.61.68-3-1.5-5.77-2.22C111.79,51.69,105,56.69,103.45,59a28,28,0,0,1-2.56,3.22c-.89,1-1,1-1,1-.29-.19,4.27-5.71,5.67-10.89,2.32-8.59-3.44-18.4-9-23.77-1.16-1.13-13.48-12.63-29.1-7.78A28.53,28.53,0,0,0,48.24,42C44.89,58.33,57.9,74.65,71.79,77.19c11.67,2.14,22.48-5.7,23.33-7l1.11-1.67a17.18,17.18,0,0,1,1.22-1.78c.13.07-3.5,4.59-4.89,10.22,0,0-2.26,9.21,5.22,22.11a8.08,8.08,0,0,0,1.67,2,6.56,6.56,0,0,0,1.67,1S95.38,98.25,90.23,97c-8.29-2.08-17.88,1.69-24.1,7.44a30.19,30.19,0,0,0-9.34,23.77c.08.5.55,3,1,5.11.33,1.51.51,2.15.67,2.67a9.84,9.84,0,0,1,.45,1.44c-.2.11-1.82-4.92-5.56-8.66a25.4,25.4,0,0,0-16.77-6.45c-2.07,0-2.78,0-2.78,0a10,10,0,0,1-1.89,0c0-.21,6.29-.67,11-2.44,8.55-3.22,13-11.26,14.11-13.44a30.26,30.26,0,0,0-2-30.55C47.19,64.56,34.25,63.25,32,63.2c-1.53,0-5.29-.13-7.29,1.06A5.71,5.71,0,0,1,23,65c-1.25.28-2.7.15-2.76-.15-.13-.73,8.47-1,14.73-6.17,3-2.48,4.35-5.24,6.17-8.84C43.08,46,46,40.32,45.21,33a20.07,20.07,0,0,0-3.09-9.54C39.9,20.12,37.23,18.68,37.55,18.1Z"/></svg>