<svg xmlns="http://www.w3.org/2000/svg" viewBox="0 0 144 144"><defs><style>.a{fill:none;stroke:#b9529f;stroke-miterlimit:10;}</style></defs><path class="a" d="M14.75,51c10.31,8.74,17.76,9.79,22.79,9,3.33-.54,4-1.65,15.32-6.73,8.33-3.73,12.49-5.6,16.06-6.35,7.29-1.52,12.89-.23,22,1.87,10.59,2.44,13.49,5,27.28,8.22,1.66.4,4.79,1.23,9,1.87a86.7,86.7,0,0,0,10.18,1A10.94,10.94,0,0,1,136.05,61a11.8,11.8,0,0,1-4.63,2c-2.68.55-6.73,3.21-13.41,7.84-12.44,8.61-11,8.13-15.87,11.24-5.28,3.39-10.07,5.76-19.65,10.49-5.71,2.82-7.57,3.55-10.21,4-2.4.37-9.7,1.52-15.11-2.55-3.43-2.58-3-4.91-7-7a12.43,12.43,0,0,0-7.75-1.41c-2.75.47-4.47,1.9-7.65,4.63a48,48,0,0,0-7.09,7.55,48.21,48.21,0,0,0,.1-5.38,51.77,51.77,0,0,0-4.16-17.86c-5.11-12.87-14-23.78-17-27.39Z"/></svg>