<svg xmlns="http://www.w3.org/2000/svg" viewBox="0 0 144 144"><defs><style>.a{fill:none;stroke:#6fccdd;stroke-miterlimit:10;}</style></defs><path class="a" d="M107.74,43.18a19,19,0,0,0-9-9.73,18.48,18.48,0,0,0-11-1.53l-3.84-.26H82.54v7.07c0,1.28-.06,1.33,0,1.46.39.89,2.86.25,5.3.34a11.46,11.46,0,0,1,6.88,2.37A9.81,9.81,0,0,1,98,49.22a9.53,9.53,0,0,1-1.13,5.41,9.42,9.42,0,0,1-2.36,2.82l-1.36,1.24a18.47,18.47,0,0,0-2.37-2.93c-3.89-3.95-6.86-3.46-11.61-7.11a14.75,14.75,0,0,1-5.41-6.43A12.62,12.62,0,0,1,73,36.47l0-2.48V31.66h-8.3L62.92,66.25l8.57.67a26.39,26.39,0,0,0,.11-3.16c-.06-2.91-.54-3.93.12-5.3a4.11,4.11,0,0,1,2.36-2.14c.93-.25,1.91,0,5.3,2.14,1.25.8,2.88,1.89,4.74,3.27l1.21,1,1.27,1.47c-9.46,6-16.38,10.33-17.37,10.93l-1.12.68a9.52,9.52,0,0,1-1.58.9c-1.22.19-2.54-3.91-3.84-6.2A15.89,15.89,0,0,0,50.18,63a15.33,15.33,0,0,0-13.42,7.11c-4.58,7.29-.47,15.43.45,17.25a16.69,16.69,0,0,0,5.86,6.88,19.54,19.54,0,0,0,14,1.92A34.82,34.82,0,0,0,61.18,95c1.21-.55,2-1.12,2.64-.82s.93,1.58,1,2.17c0,0,.12.82,3.11,7.11,2.37,5,8.76,7.12,10.57,7.72a21.31,21.31,0,0,0,12.8.27c7.73-2.32,11.45-8.46,12.6-10.36a25.69,25.69,0,0,0,3.18-8.4c2-9.44-.64-19.79-3.45-22.35-.28-.25-1.38-1.18-1.22-2.17s1.16-1.34,1.56-1.55c2-1.09,2.86-3.56,4.13-7.18A24.07,24.07,0,0,0,107.74,43.18Z"/></svg>