<svg xmlns="http://www.w3.org/2000/svg" viewBox="0 0 144 144"><defs><style>.a{fill:none;stroke:#6abd45;stroke-miterlimit:10;}</style></defs><path class="a" d="M24.26,69.38a87.55,87.55,0,0,1,10.34-3c3.15-.72,5.51-1.08,8.32-1.51,5.25-.81,9.28-1.17,10.34-1.26,6.93-.61,8-.16,15.38-.51,9.54-.45,8.55-1.24,16.39-1.51,9.51-.33,13.22.75,14.62-1.51s0-6.24-2.52-8.58c-7.41-6.74-23.69,3-26.22-1.26-1.06-1.79.72-5.29,3-6.81,2.72-1.78,5.5-.36,11.85.51,10.06,1.38,10.49-1.16,14.37.75,3.69,1.83,3.62,4.28,11.1,15.64,2.74,4.16,4.11,6.24,5.8,8.32,8.89,10.94,18.73,13.67,18.15,15.13s-13.65.75-23.19-7.32c-4.17-3.52-4.17-5.45-8.07-7.81C98,65,92.45,66.12,83.77,66.61,60.9,67.9,51.41,63.09,48,68.63c-2.5,4,.06,10.48-3,11.85-1.86.82-3.87-1-5,0-1.75,1.56,1.62,6.71,0,8.07-.94.79-3.27.06-4.79-1.26C31.5,84.14,34,78.86,31.32,77c-2.49-1.79-8.61,0-10.59,3.78-3.43,6.54,7.38,15.49,4.54,19.16-2.24,2.9-12.09,1.41-15.38-4.28-1.76-3-1.12-6.38-.25-10.85.7-3.63,1.44-7.48,4.54-10.59C15.94,72.41,18.71,71.4,24.26,69.38Z"/></svg>