<svg xmlns="http://www.w3.org/2000/svg" viewBox="0 0 144 144"><defs><style>.a{fill:none;stroke:#b9529f;stroke-miterlimit:10;}</style></defs><polygon class="a" points="62.86 53.28 60.81 16.11 64.09 13.23 66.97 48.35 74.77 15.7 78.06 14.26 72.1 46.3 94.49 15.49 98.16 15.18 96.34 20.42 74.16 53.28 69.84 63.97 110.86 30.89 113.57 30.66 113.57 34.59 105.58 41.58 74.16 63.97 114.42 48.97 119.17 48.48 119.17 51.85 110.86 55.75 73.75 70.54 113.18 68.07 132.69 67.25 136.6 70.54 132.08 73.21 76.42 73.21 86.89 79.22 104.97 86.97 122.02 95.39 122.02 99.91 115.85 98.88 78.27 80.81 108.46 118.19 109.69 123.12 104.77 123.63 70.25 76.7 81.76 100.32 89.77 121.89 88.74 126.41 85.04 126.41 67.58 80.4 70.25 95.6 74.77 126.41 74.77 132.16 70.85 132.62 64.09 81.63 62.24 97.65 59.37 125.17 54.85 128.05 54.85 113.47 60.4 80.19 30.82 119.22 26.91 116.34 55.26 79.22 16.23 108.13 10.69 105.66 15.62 101.55 55.47 76.29 12.13 91.28 9.46 88.82 18.08 83.48 54.03 72.92 7.4 75.06 10.89 70.33 46.84 68.48 12.33 59.24 10.48 54.72 27.74 57.8 54.23 66.02 50.54 60.06 22.81 40.34 25.89 37.88 55.67 58.83 48.07 48.15 34.52 31.1 35.54 26.58 54.64 49.18 45.81 14.26 47.87 11.38 62.86 53.28"/></svg>