<svg xmlns="http://www.w3.org/2000/svg" viewBox="0 0 144 144"><defs><style>.a{fill:none;stroke:#3953a4;stroke-miterlimit:10;}</style></defs><polygon class="a" points="24.77 37.42 16.75 36.75 14.61 20.02 28.52 24.44 46.71 9.59 53 16.55 61.03 15.88 74.81 8.38 76.95 15.34 87.12 4.77 89.79 7.45 92.74 5.44 94.34 6.64 101.3 4.77 104.78 4.77 110.8 3.7 117.49 19.49 118.96 24.71 115.61 27.25 115.61 31.39 121.37 33.94 121.37 41.83 122.97 47.32 127.52 47.32 130.06 42.63 132.61 41.97 135.01 45.71 132.07 59.49 120.43 69.12 117.89 69.93 116.69 72.47 113.61 74.61 114.14 83.17 114.41 94.81 114.68 102.44 120.43 104.58 126.99 109.26 141.97 109.26 132.74 122.91 124.58 134.68 118.02 134.68 113.88 140.3 111.87 138.43 107.05 140.3 103.04 129.19 103.71 122.64 99.96 120.63 97.42 116.22 73.2 125.18 67.99 122.1 53.8 121.7 39.09 110.6 39.62 105.78 36.81 105.51 36.41 101.77 31.73 102.17 26.38 106.72 20.22 108.59 10.99 105.25 10.99 102.03 2.03 83.71 2.03 62.7 7.51 49.72 10.99 44.1 12.46 44.1 14.74 39.82 24.77 37.42"/></svg>