<svg xmlns="http://www.w3.org/2000/svg" viewBox="0 0 144 144"><defs><style>.a{fill:none;stroke:#3953a4;stroke-miterlimit:10;}</style></defs><polygon class="a" points="68.05 36.14 66.35 30.63 64.06 19.34 83.86 20.47 83.86 24.37 86.97 24.37 86.97 20.89 94.03 24.37 89.65 34.44 82.45 40.66 88.38 50.54 88.09 71.72 87.95 82.31 88.94 87.44 88.66 93.32 89.22 119.16 85.69 117.75 83.44 121.84 81.18 118.45 79.05 122.83 77.08 118.73 75.53 122.83 70.73 118.45 70.87 124.66 67.91 120 64.06 123.82 62.96 118.17 57.46 124.66 57.46 117.75 53.22 122.26 53.22 113.23 49.98 120.71 52.94 101.51 56.75 81.46 59.58 76.06 58.87 72 59.86 56.05 63.25 47.56 66.92 40.66 68.05 36.14"/></svg>