<svg xmlns="http://www.w3.org/2000/svg" viewBox="0 0 144 144"><defs><style>.a{fill:none;stroke:#6fccdd;stroke-miterlimit:10;}</style></defs><polygon class="a" points="72 24.38 76.61 35.7 83.89 25.89 85.54 37.99 95.03 30.3 93.62 42.44 104.72 37.34 100.34 48.75 112.36 46.57 105.28 56.53 117.47 57.42 108.13 65.3 119.71 69.19 108.7 74.5 118.96 81.15 106.98 83.55 115.25 92.54 103.05 91.89 108.83 102.66 97.18 99 100.1 110.86 89.72 104.42 89.6 116.64 81.15 107.81 77.99 119.62 72 108.97 66.01 119.62 62.85 107.81 54.4 116.64 54.28 104.42 43.9 110.86 46.82 99 35.16 102.66 40.95 91.89 28.75 92.54 37.02 83.55 25.04 81.15 35.3 74.5 24.29 69.19 35.87 65.3 26.54 57.42 38.72 56.53 31.64 46.57 43.66 48.75 39.27 37.34 50.38 42.44 48.97 30.3 58.46 37.99 60.11 25.89 67.39 35.7 72 24.38"/></svg>