<svg xmlns="http://www.w3.org/2000/svg" viewBox="0 0 144 144"><defs><style>.a{fill:none;stroke:#6fccdd;stroke-miterlimit:10;}</style></defs><path class="a" d="M54,37.23a20.61,20.61,0,0,1,9-4.49c4.73-1,5.72.85,12.12.89,7.7.06,8.76-2.53,13.47-1.34a15.84,15.84,0,0,1,9.88,8.08c2.38,4.79.29,7.67-.9,18.85a163,163,0,0,0-.45,23.35c.29,9.29,1,11.68-.45,16.61-.79,2.74-3.09,10.68-9,12.57-2.29.73-3.75.11-12.57-3.15C59.91,103,59,102.91,56.24,101,53,98.7,48.47,95.49,45.91,89.75c-2-4.61-.83-6.39-.9-19.3-.06-13.61-1.43-15.09.45-20.65A26.76,26.76,0,0,1,54,37.23Z"/></svg>