<svg xmlns="http://www.w3.org/2000/svg" viewBox="0 0 144 144"><defs><style>.a{fill:none;stroke:#6fccdd;stroke-miterlimit:10;}</style></defs><path class="a" d="M26.94,93.57C21.2,80.93,24.26,68.3,27.24,56c1.18-4.88,2.14-7.18,3.64-9.39C35.7,39.49,43.54,37,46.32,36.33c8.28-2.11,10,1.44,20.9,0,6.22-.82,11-1.44,15.14-4.84,7.56-6.14,4.45-14,12.12-19.39.3-.21,6.86-4.64,13-2.42s8.42,10.08,10.3,17c3.31,12.12-.74,13.09,1.81,30.59.6,4.1,1.3,7.28-.3,10.9s-3.85,4-9.08,10c-3.35,3.82-5,5.73-6.06,8.48-1.9,5-.06,7.43,0,15.14,0,4.9.08,11-3,17-4,7.69-11,11.1-13.63,12.42-4.46,2.18-11.37,5.57-15.75,2.72-4.84-3.14-1-10.27-6.66-16.65-2-2.29-6-3.75-13.93-6.67-10.34-3.79-12.94-3.44-17-6.66S28.34,96.67,26.94,93.57Z"/></svg>