<svg xmlns="http://www.w3.org/2000/svg" viewBox="0 0 144 144"><defs><style>.a{fill:none;stroke:#ed2024;stroke-miterlimit:10;}</style></defs><path class="a" d="M51.18,20.69c11.53-3.16,21-.23,32.55,3.35,7,2.15,15.54,4.9,23.69,12.2a53.78,53.78,0,0,1,8.85,10.29,51.71,51.71,0,0,1,6,12.44,43.43,43.43,0,0,1,2.4,16.76,45.33,45.33,0,0,1-2.4,11.48,55.44,55.44,0,0,1-7.18,15.32A52.21,52.21,0,0,1,66.5,124.3c-17.41-2.07-28.58-12.56-33-17.47,0,0-18.17-20-13.4-49A58.16,58.16,0,0,1,27,38.63a40.83,40.83,0,0,1,5.27-6.94A41.07,41.07,0,0,1,51.18,20.69Z"/></svg>