<svg xmlns="http://www.w3.org/2000/svg" viewBox="0 0 144 144"><defs><style>.a{fill:none;stroke:#ed2024;stroke-miterlimit:10;}</style></defs><path class="a" d="M40,76.92c2.06,5.9,6,14.44,13.62,21.36a33.14,33.14,0,0,0,8.67,5.89c3.32,1.51,8.47,3.86,13.94,2.47,4.53-1.14,3.78-3.46,10.22-5.88,4.44-1.67,6.42-1.17,8.36-3.41s.94-3.84,3.1-6.5c2.56-3.17,5.12-2.3,5.88-4.33C105.15,82.93,97.31,80,97,72.89c-.15-3.49,1.6-6,0-7.74-1.18-1.26-2.52-.32-4-1.24-4.38-2.66.38-14.49-3.71-17-1.68-1-2.78.74-5.58,0C78.25,45.43,78,37.56,74.4,37c-2.8-.45-3.92,4-9,8.67-8.92,8.26-22.23,10-22.91,14.24-.22,1.34-.31,3.1-.31,3.1a32,32,0,0,0,0,3.72C42.27,68.35,41.94,71.3,40,76.92Z"/></svg>