<svg xmlns="http://www.w3.org/2000/svg" viewBox="0 0 144 144"><defs><style>.a{fill:none;stroke:#b9529f;stroke-miterlimit:10;}</style></defs><path class="a" d="M17.29,62.82C21,70.14,30.92,73.07,37.7,73.28s10.64-2.31,14.8.51c1.44,1,1.58,1.69,4.59,6.89,6.64,11.44,9.27,13.67,12,14.8,1.24.51,3.43,1.41,5.36.51,2.15-1,1.82-3.23,4.59-5.61,1-.82,3-2.62,5.36-2.3,2.77.39,3.34,3.48,5.62,3.32,1.4-.1,2.53-1.38,3.57-2.55,1.65-1.88,1.74-3.24,2.55-3.32,1.14-.12,1.07,3.65,3.06,4.34.7.24,1.78-.22,3.91-1.14,3.19-1.38,3.34-1.86,4.42-1.91,2.17-.09,2.92,1.81,5.12,2.71,3.38,1.39,7.25-.73,8.85-1.6,5.83-3.2,8.51-14,6-26.63a14.68,14.68,0,0,1-2.41,4.12,14.44,14.44,0,0,1-5.53,4c-.72.29-6.47,2.51-11.06-.11-1.7-1-2.49-2.18-3.81-1.9s-1.31,1.73-3.12,3-4.4,1.85-6.13.8C94.18,70.46,94.08,69.12,93,69c-.67,0-1,.4-2,1-.72.44-2.55,1.54-4.12,1.41-2.15-.19-2.27-2.53-4.82-3a4.7,4.7,0,0,0-3.32.6c-1.36.93-1.28,2.27-2.11,3.62-1.57,2.55-5.11,3.06-6.23,3.22-5.82.83-11.24-5.2-14-8.24-6.6-7.36-6.37-12.55-12-14.57-2.54-.92-2.79.08-7.53-.31-11-.88-15-6.69-18.49-4.72C15.08,49.91,14.62,57.56,17.29,62.82Z"/></svg>