<svg xmlns="http://www.w3.org/2000/svg" viewBox="0 0 144 144"><defs><style>.a{fill:none;stroke:#f7ec13;stroke-miterlimit:10;}</style></defs><path class="a" d="M76,14.85C63.18,20.78,52.76,25.6,45.19,37.33S37.4,60.8,37.26,70.09c-.16,11-.4,26.65,10.71,40.69,10.47,13.24,24.41,16.68,34.9,19.27,7.38,1.83,15.56,3.73,20.35-.85,3.27-3.13,4.66-9,2.57-12.21-.86-1.32-2-1.73-12.64-5.14l-5.35-1.71c-.86-.27-12.31-3.88-17.13-6.64-12-6.9-13.34-26.1-13.49-28.91C57,71.1,56.29,58.07,64.67,48c5.79-6.92,14.65-10.92,18-12.42,7.47-3.36,12.22-3.67,16.06-8.78.59-.78,4.56-6.07,2.69-10.18C99.29,12,91.12,12,88.49,12A28.91,28.91,0,0,0,76,14.85Z"/></svg>