<svg xmlns="http://www.w3.org/2000/svg" viewBox="0 0 144 144"><defs><style>.a{fill:none;stroke:#3953a4;stroke-miterlimit:10;}</style></defs><path class="a" d="M69.65,109c8.81-11.53,13.46-10,26.41-22.57,8.83-8.58,14.51-14.09,17-23.43.88-3.25,3.69-15.55-3.41-27.25C108.77,34.2,98.32,17.54,82.85,20,70.13,21.93,62.21,35.53,62,47.2c-.25,12.95,8.91,25.85,18.32,27.26,4.84.73,9-1.69,9.37-.85.53,1.22-8.79,5.09-19.17,12.78-7.44,5.51-9.59,8.66-25.55,23-5,4.52-7.52,6.63-11.5,8.52-2.43,1.16-3.87,1.49-3.83,2.13.09,1.59,9.14,2.42,24.7,3.83l4.68.43h0S65.87,113.91,69.65,109Z"/></svg>