<svg xmlns="http://www.w3.org/2000/svg" viewBox="0 0 144 144"><defs><style>.a{fill:none;stroke:#ed2024;stroke-miterlimit:10;}</style></defs><path class="a" d="M75.89,96.44c0,.37,16.6.28,37.94,0l-5.1,13.07L71.11,112.7h42.83v16H30.3V112.49H67.82L30,110.68l.21-14.13H64.5c3.37,0,5.29.15,5.31,0,0-.31-8.14-.22-16.74-4.19a39.49,39.49,0,0,1-10.56-7.17,40.2,40.2,0,0,1-9.7-14.35A40.77,40.77,0,0,1,31,47.13c3.39-14.81,14.12-22.67,17-24.64a42.63,42.63,0,0,1,27.24-7.11A43.81,43.81,0,0,1,99,24.81a41.45,41.45,0,0,1,11.09,13.68A40.15,40.15,0,0,1,114,57.62a40.82,40.82,0,0,1-7.57,21.79,47.64,47.64,0,0,1-24.58,16,13.83,13.83,0,0,1-2.5.49,17.24,17.24,0,0,0-1.89.12A5.6,5.6,0,0,0,75.89,96.44Z"/></svg>