<svg xmlns="http://www.w3.org/2000/svg" viewBox="0 0 144 144"><defs><style>.a{fill:none;stroke:#b9529f;stroke-miterlimit:10;}</style></defs><path class="a" d="M8.6,73c-.17-4.7-.74-33.7,20.29-51.34C39.29,12.9,51.12,10.18,56.75,8.89c7.41-1.71,19.93-4.42,34.63.39C104.9,13.72,113,22.19,117.24,26.79A71,71,0,0,1,134.36,59c1.23,5.5,1.28,9,.79,31-.2,9.35-.46,20-.79,31.84h-8l-30.65-6L95,69.38l-4,47.36-12.74,2.39L74.66,114l.4-17.51-6,35.42-5.57,5.57-4.38-9.15-4.38-.4-1.59-15.12-4.38.4L50,130.27l-36.22,1.59Z"/></svg>