<svg xmlns="http://www.w3.org/2000/svg" viewBox="0 0 144 144"><defs><style>.a{fill:none;stroke:#b9529f;stroke-miterlimit:10;}</style></defs><path class="a" d="M34.81,40.59c-.74,1.11,3.78,4,8,11.5a43.13,43.13,0,0,1,5,14.09c1.41,9.21-1,16.54-2.59,21a52.58,52.58,0,0,1-9.46,16.5c2.08-1,4.31-2,6.68-3a77.48,77.48,0,0,1,22.25-5.75,73.76,73.76,0,0,1,23.74,1.67,23,23,0,0,0,5.93,1.67,14.58,14.58,0,0,0,9.46-2c1.18-.76,4.91-3.19,5.38-7.23.49-4.36-3.14-7.74-5.38-9.83a23.19,23.19,0,0,0-12.24-5.75,17.25,17.25,0,0,0,6.49-1.3A18.09,18.09,0,0,0,107.32,63c1.2-2.57,2.89-6.22,1.3-9.46-1.68-3.42-6-4.31-8.53-4.82-6-1.22-10.71.21-13.72.93-9.16,2.15-16.74,1-24.85-.19C45.7,47.13,36,38.89,34.81,40.59Z"/></svg>