<svg xmlns="http://www.w3.org/2000/svg" viewBox="0 0 144 144"><defs><style>.a{fill:none;stroke:#b9529f;stroke-miterlimit:10;}</style></defs><path class="a" d="M79.41,41.12a28,28,0,0,1,15.34-10.4,26,26,0,0,1,12.74,0c7,1.91,11.11,6.53,14.16,10a47.08,47.08,0,0,1,10.8,24.14,49.82,49.82,0,0,1-1.27,19.49c-1.38,5.72-3.32,13.73-10.16,20.76-2.48,2.54-7.21,7.39-15,8.89-9.07,1.74-16.28-2.18-18.43-3.39a29.47,29.47,0,0,1-9.11-8,14.62,14.62,0,0,1-2.75,6.15,15.08,15.08,0,0,1-8.6,5.39c-8,1.49-14.4-5.53-16.07-7.36a25.06,25.06,0,0,1-6-12.34,37.61,37.61,0,0,1-1.46,6.53c-2,6.22-3.3,11.58-7.15,12.86a7.07,7.07,0,0,1-6.12-.94c-1.11-.78-1.7-2.1-2.9-4.66a39.67,39.67,0,0,1-2-4.87C23.38,97,22,86.58,21.89,85.48c-.27,2.5-.54,5-.83,7.56-.79,6.95-1,10-1.76,14.52a13.71,13.71,0,0,1-.52,3.11,11.57,11.57,0,0,1-1.14,2.38c-.58,1-.86,1.42-1.14,1.45-1.19.13-2.68-5.08-2.8-5.49C11,99.31,11.17,85.14,11.21,77.7c.06-12.67-.36-13.41.1-20.94.39-6.3,1.53-14.63,1.77-16.48.32-2.52.61-4.63.83-6.12,1-3.84,1.87-4.66,2.48-4.66,1.64,0,3,5.76,3.42,7.67A51.51,51.51,0,0,1,21,46.5c.15,2.47.09,3.43.32,6.53.16,2.28.36,4.15.51,5.39.19-2,.52-4.94,1.14-8.4a70.93,70.93,0,0,1,2.39-9.74c2.47-7.48,4.55-8.89,5.29-9.33a6.22,6.22,0,0,1,4.35-1c2.54.51,3.86,3.06,5.7,6.64A50.48,50.48,0,0,1,44.28,46.7c.37,1.34.65,2.45.83,3.22a31,31,0,0,1,2.28-6.84c1.9-4.06,4.42-9.47,10.26-11.82a16.62,16.62,0,0,1,12.44.31,16.1,16.1,0,0,1,7.36,6.94Z"/></svg>