<svg xmlns="http://www.w3.org/2000/svg" viewBox="0 0 144 144"><defs><style>.a{fill:none;stroke:#6abd45;stroke-miterlimit:10;}</style></defs><path class="a" d="M44.13,129.75c11.46,7.93,25.07-3.75,52.61,0,2.55.34,3.86.64,5.65,0C118.6,124,116.63,62.64,98.82,56c-3.95-1.47-6.55.55-10.4-2.08-4.42-3-4.63-8.14-8.33-25-2.88-13.12-3.88-15.13-5.94-16.35-5.7-3.37-17.28.59-20.21,7.73C50.15,29.58,63,38.6,58.69,46.82c-2.52,4.83-7.76,3.27-15.15,10.11A37.34,37.34,0,0,0,34.62,70.3C26,89.91,33.56,109.69,35.21,114,38.55,122.69,40.22,127,44.13,129.75Z"/></svg>