<svg xmlns="http://www.w3.org/2000/svg" viewBox="0 0 144 144"><defs><style>.a{fill:none;stroke:#6abd45;stroke-miterlimit:10;}</style></defs><path class="a" d="M130.81,22.44C126.26,32.14,112,32.32,97,36c-3.81.93-30.41,7.7-51.17,27.52A90.49,90.49,0,0,0,28,87.13a85.68,85.68,0,0,0-7.24,19.79V117C39,114.67,47,115.42,50.6,117c.42.19,1.82.84,2.65.24,2.09-1.5-1.33-9.56-2.89-13.24A57.69,57.69,0,0,0,44.1,92.91c-2.82-4.12-4.26-6.18-5.78-6-1.36.15-1.91,1.8-5,9.62-3,7.57-3.57,8.62-2.89,9.87,1.92,3.53,10.65,3.67,12.28.72,1.91-3.47-6.42-10.62-4.34-13.23a2.43,2.43,0,0,1,2.3-.68c.84.19,2.12,1,3.8,7.94,1.22,5,1.83,7.54,1.2,8.81-2.34,4.66-14.06,5.85-18,.87-3.27-4.08-.18-10.8,3.15-18,2.7-5.88,4.39-9.54,7.5-10.11,6-1.1,12.25,10.31,16.53,18.16,5.66,10.37,5,15.15,4.24,17.72a16.11,16.11,0,0,1-2.94,5.32c-7.83,8.88-33.45,8.25-41.31-4.34C7.16,107.37,19.4,89.38,26.05,79.61,29.66,74.3,37.52,64,61.49,48.52c29.18-18.84,66.44-35.14,69.91-29.68C132,19.82,131.38,21.23,130.81,22.44Z"/></svg>