<svg xmlns="http://www.w3.org/2000/svg" viewBox="0 0 144 144"><defs><style>.a{fill:none;stroke:#b9529f;stroke-miterlimit:10;}</style></defs><path class="a" d="M37,59.73c-.31-1.32,4.25-10.5,15.19-15.51A35,35,0,0,1,72.78,41.8c.86.18,1.54.36,2,.48,3.44.91,11.33,3,15.51,10a14.22,14.22,0,0,1,1.61,3.55A5.84,5.84,0,0,0,92.26,57a7.46,7.46,0,0,0,.6,1.08,20,20,0,0,1,1,1.8c.9,1.53,5.92-.25,9.87.54,4.76,1,7.56,5.55,8.19,6.56,2.86,4.7,3.06,11.24,3.06,11.25,0-.28,0,.57,0,.85a1.39,1.39,0,0,0,.18.72c.41.39,2.1-1.16,3.31-1.63,3.1-1.18,9.38,2.37,10.77,8a11,11,0,0,1-2.1,9c-3.26,4-8.23,3.88-9.27,3.85-3.28-.07-7.07-1.56-7.94-2.7-.08-.11-.43-.61-.78-.55s-.57.84-.6,1c-.37,1.39-4.57,5-9.81,5.65-8.18,1-14.46-5.84-15-7.34,0-.12-.25-.77-.54-.78s-.68,1-.73,1.14c-.56,1.7-5.57,5.7-12,7,0,0-9.77,2-18.41-3.85-1.07-.73-5-3.41-5.6-5.41,0-.14-.18-.68-.48-.73-.55-.08-1.19,1.59-1.44,2.11C42.74,98.17,34.35,98,33.6,98c-2.11-.06-10.21-.29-15.41-7a18.89,18.89,0,0,1-3.55-13.48c.56-5.24,3.42-11.75,8.85-14.44,4.37-2.17,11.73-2.52,12.75-2.16.07,0,.45.17.67,0S37,59.82,37,59.73Z"/></svg>