<svg xmlns="http://www.w3.org/2000/svg" viewBox="0 0 144 144"><defs><style>.a{fill:none;stroke:#ed2024;stroke-miterlimit:10;}</style></defs><path class="a" d="M87.25,17.78c8.88,9,12.56,18,19.17,34.55,3.78,9.47,7.44,18.8,9.7,31.94,2.51,14.61,3.85,22.44,0,31.71-.44,1-7.36,17.09-21.06,20.58-.59.15-5.68.65-15.85,1.66s-10.9,1-11.83.94c-8.33-.56-14.33-4.61-19.41-8-6.27-4.24-12.41-8.38-16.09-16.09-2.26-4.76-.54-4.47-4.26-22.48C26,84.43,25.33,83.06,25.5,79.3c.29-6.83,2.57-7.77,3.54-15.85,1-8.29-1.22-8.76.24-14.91,1-4.25,3.2-7.65,7.57-14.43s4.69-5.9,7.57-10.89c4.18-7.2,3.74-9.44,7.1-12.77A20.35,20.35,0,0,1,62.41,5C73.08,3.36,82.24,12.68,87.25,17.78Z"/></svg>