<svg xmlns="http://www.w3.org/2000/svg" viewBox="0 0 144 144"><defs><style>.a{fill:none;stroke:#ed2024;stroke-miterlimit:10;}</style></defs><path class="a" d="M102.09,65.51c-2-11.26-26.14-22.68-28.22-23.64-5.07-2.36-7.89-3.1-11.05-3-7.64.11-13,4.74-14.49,6.1-2.52,2.25-5.6,5-6.1,9.15-.44,3.61,1.52,4.71.76,8.77-.67,3.61-2.43,3.9-2.67,7.24-.17,2.44.62,4.28,1.91,7.25,2,4.71,3.36,4.68,4.57,8.38,1.39,4.22,0,5.24,1.53,7.25,2.24,3,5.46,1.07,9.15,4.19,2.85,2.41,2.1,4.53,5,6.48.82.57,2.86,1.74,7.24,1.53,15.95-.76,30.11-18.23,32.41-22.11a12.54,12.54,0,0,0,1.52-4.2,11.67,11.67,0,0,0-.38-4.57C102.21,69.8,102.43,67.42,102.09,65.51Z"/></svg>