<svg xmlns="http://www.w3.org/2000/svg" viewBox="0 0 144 144"><defs><style>.a{fill:none;stroke:#b9529f;stroke-miterlimit:10;}</style></defs><path class="a" d="M30.3,17.68c4.14-3.5,16.26,2.46,20,4.28s6,3.5,9.69,3.13c4-.4,6.39-3,7.7-2,1.75,1.34-1.91,6.46,0,8.83,2.6,3.24,12.27-2.74,15.11.29,2,2.18-5,8.14-2.86,12.25C81.33,47.29,85.14,46,87,49c2.58,4.2-2.12,10.72,0,12.26,1,.71,2.11-.6,4,0,3.19,1,5.13,6.45,3.71,8C93.11,71,87.94,67,85.88,69c-.41.4-.81,1.15,0,6,1,6.16,1.54,9.25,3.42,10.26,3,1.61,7.08-1.75,7.7-.86.94,1.37-9.71,7.69-8.55,13.12.63,3,4.78,5.48,7.12,4.56,3.85-1.53.62-11.46,5.7-14.54,3.08-1.87,7.24,0,8.55.57,4.32,1.93,8.42,6.67,7.7,10.83-.63,3.62-4.3,3.28-6.84,8.27-2.7,5.28-.28,9-2.85,10.83-3.15,2.22-8.27-2.29-10.83,0-2,1.78.45,5.09-1.43,7.69-1.49,2.07-4.49,2-16.82,1.14-12.66-.86-13.6-1-15.1-2-5.5-3.48-4.19-8.2-10-11.12-4.33-2.18-10.12-2.1-11.68.29-1,1.51.38,2.93-.57,4.84-1.37,2.73-6.34,4.22-9.41,2.85-6.83-3-7.79-21.72-.85-26.5,2.36-1.63,3.93-.47,6.84-2.57,4.57-3.31,7-10.75,4.27-14.25a5.16,5.16,0,0,0-4.84-2c-3.28.8-3.56,6.27-5.42,6.27-2.09,0-3.61-6.87-3.79-7.69-.85-4-2.41-11.21,1.51-15.39,2.3-2.46,4-1.24,8-4,4.69-3.27,7.89-8.92,6.56-10.83-.4-.57-1.11-.69-11.12-1.14-1.57-.07-2.19-.1-2.85-.57-2.17-1.57-1.3-5.51-.85-11.12C30.32,21.08,28.4,19.29,30.3,17.68Z"/></svg>