<svg xmlns="http://www.w3.org/2000/svg" viewBox="0 0 144 144"><defs><style>.a{fill:none;stroke:#000;stroke-miterlimit:10;}</style></defs><path class="a" d="M103.74,10.32l-2.29,123.36L57.92,131.1,78.83,78.41,67.37,73.54c-4.21,7.92-5.63,12-6,14.32a4.4,4.4,0,0,1-1.59,3,4.43,4.43,0,0,1-3.51.16c-3.52-1-6-3.13-13.88-11.17a6.12,6.12,0,0,1-2.07-3.35c-.45-2.87,2.14-5.38,3.19-6.54,8.11-9,2.43-24.07,9.73-27.43a14.74,14.74,0,0,1,4.31-.8c3.58-.4,4.41.16,9.73.32,4.86.15,5.93-.27,7.17.8,1.82,1.56,1.78,4.38,1.76,5.42-.07,3.87-2.25,5.29-4.47,11.33a38.57,38.57,0,0,0-1.27,4.14l11.8,4.79Z"/></svg>